<?xml version="1.0" encoding="utf-8"?>
<!-- Generator: Adobe Illustrator 14.0.0, SVG Export Plug-In . SVG Version: 6.00 Build 43363)  -->
<!DOCTYPE svg PUBLIC "-//W3C//DTD SVG 1.1//EN" "http://www.w3.org/Graphics/SVG/1.1/DTD/svg11.dtd">
<svg version="1.1" id="Layer_1" xmlns="http://www.w3.org/2000/svg" xmlns:xlink="http://www.w3.org/1999/xlink" x="0px" y="0px"
	 width="110px" height="115px" viewBox="0 0 110 115" enable-background="new 0 0 110 115" xml:space="preserve">
<line fill="none" stroke="#AEAEAE" stroke-width="0.3938" x1="23.971" y1="73.37" x2="86.582" y2="73.37"/>
<g>
	<path fill="#333333" d="M30.771,89.636h0.136l3.252,7.757H33.3l-0.519-1.287h-3.885l-0.508,1.287h-0.802L30.771,89.636z
		 M32.487,95.405l-1.355-3.41c-0.146-0.361-0.293-0.914-0.293-0.914s-0.158,0.553-0.305,0.914l-1.355,3.41H32.487z"/>
	<path fill="#333333" d="M35.629,89.624h0.113l3.568,4.46l3.545-4.46h0.124v7.769h-0.79v-5.07c0-0.35,0.034-0.88,0.034-0.88
		s-0.294,0.496-0.542,0.802l-2.326,2.936H39.22l-2.292-2.936c-0.248-0.306-0.554-0.802-0.554-0.802s0.046,0.53,0.046,0.88v5.07
		h-0.791V89.624z"/>
	<path fill="#333333" d="M45.084,89.715h4.675v0.723h-3.861v3.602h3.443v0.711h-3.443v1.92h4.02v0.723h-4.833V89.715z"/>
	<path fill="#333333" d="M56.615,97.393h-0.959l-1.479-2.101c-0.26,0.046-0.542,0.068-0.813,0.068h-0.914v2.032h-0.813v-7.678h1.728
		c2.101,0,3.185,1.174,3.185,2.834c0,1.151-0.542,2.055-1.604,2.483L56.615,97.393z M53.318,94.648c1.739,0,2.383-0.892,2.383-2.1
		c0-1.209-0.655-2.111-2.383-2.111h-0.869v4.211H53.318z"/>
	<path fill="#333333" d="M58.402,89.715h0.824v7.678h-0.824V89.715z"/>
	<path fill="#333333" d="M60.921,93.554c0-2.315,1.762-3.93,3.941-3.93c1.354,0,2.394,0.508,3.049,1.49l-0.621,0.452
		c-0.497-0.734-1.321-1.208-2.428-1.208c-1.796,0-3.094,1.366-3.094,3.195s1.298,3.195,3.094,3.195c1.117,0,1.976-0.485,2.529-1.287
		l0.632,0.44c-0.678,0.993-1.784,1.58-3.161,1.58C62.683,97.482,60.921,95.868,60.921,93.554z"/>
	<path fill="#333333" d="M71.946,89.636h0.136l3.252,7.757h-0.858l-0.519-1.287h-3.885l-0.508,1.287h-0.802L71.946,89.636z
		 M73.663,95.405l-1.355-3.41c-0.146-0.361-0.293-0.914-0.293-0.914s-0.158,0.553-0.305,0.914l-1.355,3.41H73.663z"/>
	<path fill="#333333" d="M78.036,92.052c-0.215-0.26-0.531-0.712-0.531-0.712s0.068,0.543,0.068,0.87v5.183h-0.769v-7.757h0.136
		l4.584,5.42c0.215,0.259,0.531,0.711,0.531,0.711s-0.057-0.542-0.057-0.869v-5.183h0.757v7.757H82.62L78.036,92.052z"/>
	<path fill="#333333" d="M28.325,103.27h4.618v0.723h-3.805v3.603h3.455v0.745h-3.455v2.608h-0.813V103.27z"/>
	<path fill="#333333" d="M34.11,107.109c0-2.315,1.762-3.93,3.941-3.93c2.19,0,3.952,1.614,3.952,3.93
		c0,2.314-1.762,3.93-3.952,3.93C35.872,111.039,34.11,109.424,34.11,107.109z M41.156,107.109c0-1.829-1.31-3.195-3.104-3.195
		c-1.784,0-3.094,1.366-3.094,3.195s1.31,3.195,3.094,3.195C39.847,110.305,41.156,108.938,41.156,107.109z"/>
	<path fill="#333333" d="M43.227,107.109c0-2.315,1.762-3.93,3.941-3.93c2.19,0,3.952,1.614,3.952,3.93
		c0,2.314-1.762,3.93-3.952,3.93C44.988,111.039,43.227,109.424,43.227,107.109z M50.272,107.109c0-1.829-1.31-3.195-3.104-3.195
		c-1.784,0-3.094,1.366-3.094,3.195s1.31,3.195,3.094,3.195C48.963,110.305,50.272,108.938,50.272,107.109z"/>
	<path fill="#333333" d="M54.013,103.992h-2.359v-0.723h5.532v0.723h-2.359v6.956h-0.813V103.992z"/>
	<path fill="#333333" d="M58.61,103.27h2.608c1.435,0,2.111,0.848,2.111,1.886c0,0.757-0.338,1.311-0.993,1.524
		c0.993,0.237,1.581,0.994,1.581,2.01c0,1.276-0.791,2.259-2.428,2.259h-2.88V103.27z M61.275,106.409
		c0.892,0,1.242-0.508,1.242-1.208s-0.373-1.209-1.355-1.209h-1.738v2.417H61.275z M61.434,110.226c1.174,0,1.66-0.666,1.66-1.559
		c0-0.903-0.531-1.558-1.705-1.558h-1.965v3.116H61.434z"/>
	<path fill="#333333" d="M67.986,103.191h0.136l3.252,7.757h-0.858l-0.519-1.287h-3.885l-0.508,1.287h-0.802L67.986,103.191z
		 M69.703,108.961l-1.355-3.41c-0.146-0.361-0.293-0.914-0.293-0.914s-0.158,0.553-0.305,0.914l-1.355,3.41H69.703z"/>
	<path fill="#333333" d="M72.845,103.27h0.813v6.956h3.624v0.723h-4.438V103.27z"/>
	<path fill="#333333" d="M78.798,103.27h0.813v6.956h3.624v0.723h-4.438V103.27z"/>
</g>
<g>
	<path fill="none" stroke="#AEAEAE" stroke-width="1.5" d="M66.589,36.92l2.273,15.794c0,0-0.327,3.349,2.889,3.872
		c3.217,0.525,4.267,0.395,4.267,0.395s1.443,0.721,1.772-1.641c0.328-2.363,1.083-6.367,1.083-6.367"/>
	<path fill="none" stroke="#AEAEAE" stroke-width="1.5" stroke-linecap="round" stroke-linejoin="round" d="M63.416,37.672
		l-4.661,1.85c-0.919,1.575-2.954,5.578-2.954,5.578s-0.918,1.052,0.79,2.035c1.704,0.986,2.688,1.312,5.381,1.51
		c2.69,0.196,14.111,0.787,15.883,0.328c1.773-0.459,1.444-0.852,0.526-1.379c-8.172-2.663-15.226-2.732-15.226-2.732"/>
	<path fill="none" stroke="#AEAEAE" stroke-width="1.5" stroke-linecap="round" stroke-linejoin="round" d="M73.286,33.222
		l0.104,1.508c0,0-0.327,0.984-1.311,1.182c-0.985,0.197-8.14,1.246-8.664,2.099c-0.525,0.854-1.464,3.692-1.51,5.252
		c-0.015,0.459,0.13,0.967,0.363,1.505c0.929,2.156,3.273,4.781,2.589,6.568c0,0-1.05,3.348-5.251,5.645
		c-3.604,1.971-5.25,2.23-6.956,1.904c-1.708-0.33-5.776-3.282-8.992-4.003c-3.218-0.723-5.515-0.854-7.352-1.445
		c-1.837-0.59-1.97-0.918-1.97-0.918s-0.59-3.479-1.444-5.119c-0.854-1.642-3.412-6.827-2.361-12.931
		c1.049-6.104,8.859-19.362,23.693-17.656C69.062,18.518,73.286,33.222,73.286,33.222"/>
	<path fill="none" stroke="#AEAEAE" stroke-width="1.5" d="M55.811,46.809c0,2.246-1.823,4.068-4.072,4.068
		c-2.245,0-4.068-1.822-4.068-4.068c0-2.25,1.823-4.071,4.068-4.071C53.987,42.738,55.811,44.559,55.811,46.809z"/>
</g>
</svg>
