<?xml version="1.0" encoding="utf-8"?>
<!-- Generator: Adobe Illustrator 14.0.0, SVG Export Plug-In . SVG Version: 6.00 Build 43363)  -->
<!DOCTYPE svg PUBLIC "-//W3C//DTD SVG 1.1//EN" "http://www.w3.org/Graphics/SVG/1.1/DTD/svg11.dtd">
<svg version="1.1" id="Layer_1" xmlns="http://www.w3.org/2000/svg" xmlns:xlink="http://www.w3.org/1999/xlink" x="0px" y="0px"
	 width="110px" height="115px" viewBox="0 0 110 115" enable-background="new 0 0 110 115" xml:space="preserve">
<line fill="none" stroke="#AEAEAE" stroke-width="0.3938" x1="23.971" y1="73.37" x2="86.582" y2="73.37"/>
<g>
	<path fill="#333333" d="M30.076,89.715h2.608c1.435,0,2.111,0.847,2.111,1.885c0,0.757-0.338,1.311-0.993,1.524
		c0.993,0.237,1.581,0.994,1.581,2.011c0,1.275-0.791,2.258-2.428,2.258h-2.88V89.715z M32.741,92.854
		c0.893,0,1.242-0.508,1.242-1.208s-0.373-1.208-1.355-1.208H30.89v2.416H32.741z M32.899,96.67c1.174,0,1.66-0.666,1.66-1.559
		c0-0.903-0.531-1.558-1.705-1.558H30.89v3.116H32.899z"/>
	<path fill="#333333" d="M39.452,89.636h0.136l3.252,7.757h-0.858l-0.519-1.287h-3.885l-0.508,1.287h-0.802L39.452,89.636z
		 M41.169,95.405l-1.355-3.41c-0.146-0.361-0.293-0.914-0.293-0.914s-0.158,0.553-0.305,0.914l-1.355,3.41H41.169z"/>
	<path fill="#333333" d="M43.588,95.925l0.678-0.361c0.361,0.644,0.892,1.196,1.976,1.196c0.893,0,1.593-0.496,1.593-1.31
		c0-0.779-0.485-1.174-1.445-1.604l-0.61-0.282c-1.095-0.496-1.693-1.027-1.693-2.1c0-1.106,0.869-1.841,2.021-1.841
		c1.027,0,1.671,0.475,2.077,1.151l-0.654,0.407c-0.294-0.475-0.7-0.836-1.423-0.836c-0.757,0-1.22,0.44-1.22,1.096
		c0,0.677,0.361,0.981,1.22,1.377l0.609,0.282c1.276,0.564,1.931,1.197,1.931,2.349c0,1.265-1.005,2.032-2.382,2.032
		C44.796,97.482,43.995,96.737,43.588,95.925z"/>
	<path fill="#333333" d="M50.309,89.715h4.675v0.723h-3.861v3.602h3.443v0.711h-3.443v1.92h4.02v0.723h-4.833V89.715z"/>
	<path fill="#333333" d="M56.86,89.715h2.608c1.435,0,2.111,0.847,2.111,1.885c0,0.757-0.338,1.311-0.993,1.524
		c0.993,0.237,1.581,0.994,1.581,2.011c0,1.275-0.791,2.258-2.428,2.258h-2.88V89.715z M59.525,92.854
		c0.892,0,1.242-0.508,1.242-1.208s-0.373-1.208-1.355-1.208h-1.738v2.416H59.525z M59.684,96.67c1.174,0,1.66-0.666,1.66-1.559
		c0-0.903-0.531-1.558-1.705-1.558h-1.965v3.116H59.684z"/>
	<path fill="#333333" d="M66.236,89.636h0.136l3.252,7.757h-0.858l-0.519-1.287h-3.885l-0.508,1.287h-0.802L66.236,89.636z
		 M67.953,95.405l-1.355-3.41c-0.146-0.361-0.293-0.914-0.293-0.914S66.146,91.634,66,91.995l-1.355,3.41H67.953z"/>
	<path fill="#333333" d="M71.095,89.715h0.813v6.955h3.624v0.723h-4.438V89.715z"/>
	<path fill="#333333" d="M77.047,89.715h0.813v6.955h3.624v0.723h-4.438V89.715z"/>
</g>
<g>
	<g>
		<circle fill="none" stroke="#2D669A" stroke-width="1.5" cx="61.094" cy="52.526" r="6.215"/>
		<path fill="none" stroke="#2D669A" stroke-width="1.5" d="M54.902,52.973c0.179,0.016,0.359,0.023,0.544,0.023
			c3.326,0,6.025-2.697,6.025-6.026c0-0.218-0.011-0.431-0.034-0.644"/>
		<path fill="none" stroke="#2D669A" stroke-width="1.5" d="M67.5,52.578c-0.174-0.039-0.353-0.071-0.533-0.097
			c-3.299-0.445-6.332,1.867-6.777,5.166c-0.03,0.215-0.048,0.429-0.052,0.642"/>
	</g>
	<g>
		<path fill="none" stroke="#2D669A" stroke-width="1.5" stroke-linecap="round" stroke-linejoin="round" d="M28.728,54.006
			c0.16-0.938,2.634-0.845,2.634-0.845s11.124-10.698,13.427-13.374c2.301-2.675,7.032-8.664,12.02-14.396
			c4.987-5.733,18.794-19.618,18.794-19.618s1.535-1.655,3.318,0.134l2.476,2.444c1.787,1.787,0.128,3.319,0.128,3.319
			s-13.91,13.781-19.651,18.757c-5.742,4.977-11.739,9.699-14.418,11.996c-2.681,2.297-13.399,13.399-13.399,13.399
			s0.062,2.394-0.849,2.633C32.295,58.695,28.567,54.944,28.728,54.006z"/>
		
			<line fill="none" stroke="#2D669A" stroke-width="1.5" stroke-linecap="round" stroke-linejoin="round" x1="48.162" y1="35.719" x2="51.33" y2="39.216"/>
	</g>
</g>
</svg>
