<?xml version="1.0" encoding="utf-8"?>
<!-- Generator: Adobe Illustrator 14.0.0, SVG Export Plug-In . SVG Version: 6.00 Build 43363)  -->
<!DOCTYPE svg PUBLIC "-//W3C//DTD SVG 1.1//EN" "http://www.w3.org/Graphics/SVG/1.1/DTD/svg11.dtd">
<svg version="1.1" id="Layer_1" xmlns="http://www.w3.org/2000/svg" xmlns:xlink="http://www.w3.org/1999/xlink" x="0px" y="0px"
	 width="110px" height="115px" viewBox="0 0 110 115" enable-background="new 0 0 110 115" xml:space="preserve">
<line fill="none" stroke="#AEAEAE" stroke-width="0.3938" x1="23.971" y1="73.37" x2="86.582" y2="73.37"/>
<g>
	<path fill="#333333" d="M23.508,89.715h2.608c1.435,0,2.111,0.847,2.111,1.885c0,0.757-0.338,1.311-0.993,1.524
		c0.993,0.237,1.581,0.994,1.581,2.011c0,1.275-0.791,2.258-2.428,2.258h-2.88V89.715z M26.173,92.854
		c0.893,0,1.242-0.508,1.242-1.208s-0.373-1.208-1.355-1.208h-1.738v2.416H26.173z M26.331,96.67c1.174,0,1.66-0.666,1.66-1.559
		c0-0.903-0.531-1.558-1.705-1.558h-1.965v3.116H26.331z"/>
	<path fill="#333333" d="M32.884,89.636h0.136l3.252,7.757h-0.858l-0.519-1.287H31.01l-0.508,1.287H29.7L32.884,89.636z
		 M34.601,95.405l-1.355-3.41c-0.146-0.361-0.293-0.914-0.293-0.914s-0.158,0.553-0.305,0.914l-1.355,3.41H34.601z"/>
	<path fill="#333333" d="M37.02,95.925l0.678-0.361c0.361,0.644,0.892,1.196,1.976,1.196c0.893,0,1.593-0.496,1.593-1.31
		c0-0.779-0.485-1.174-1.445-1.604l-0.61-0.282c-1.095-0.496-1.693-1.027-1.693-2.1c0-1.106,0.869-1.841,2.021-1.841
		c1.027,0,1.671,0.475,2.077,1.151l-0.654,0.407c-0.294-0.475-0.7-0.836-1.423-0.836c-0.757,0-1.22,0.44-1.22,1.096
		c0,0.677,0.361,0.981,1.22,1.377l0.609,0.282c1.276,0.564,1.931,1.197,1.931,2.349c0,1.265-1.005,2.032-2.382,2.032
		C38.228,97.482,37.427,96.737,37.02,95.925z"/>
	<path fill="#333333" d="M45.039,93.452l2.902-3.737h0.914l-2.846,3.703l3.15,3.975h-1.005l-2.676-3.376l-0.926,1.118v2.258H43.74
		v-7.678h0.813v3.636c0,0.361-0.045,0.802-0.068,1.05C44.655,94.073,44.893,93.644,45.039,93.452z"/>
	<path fill="#333333" d="M50.597,89.715h4.675v0.723H51.41v3.602h3.443v0.711H51.41v1.92h4.02v0.723h-4.833V89.715z"/>
	<path fill="#333333" d="M58.831,90.438h-2.359v-0.723h5.532v0.723h-2.359v6.955h-0.813V90.438z"/>
	<path fill="#333333" d="M63.429,89.715h2.608c1.435,0,2.111,0.847,2.111,1.885c0,0.757-0.338,1.311-0.993,1.524
		c0.993,0.237,1.581,0.994,1.581,2.011c0,1.275-0.791,2.258-2.428,2.258h-2.88V89.715z M66.094,92.854
		c0.892,0,1.242-0.508,1.242-1.208s-0.373-1.208-1.355-1.208h-1.738v2.416H66.094z M66.252,96.67c1.174,0,1.66-0.666,1.66-1.559
		c0-0.903-0.531-1.558-1.705-1.558h-1.965v3.116H66.252z"/>
	<path fill="#333333" d="M72.804,89.636h0.136l3.252,7.757h-0.858l-0.519-1.287H70.93l-0.508,1.287H69.62L72.804,89.636z
		 M74.521,95.405l-1.355-3.41c-0.146-0.361-0.293-0.914-0.293-0.914s-0.158,0.553-0.305,0.914l-1.355,3.41H74.521z"/>
	<path fill="#333333" d="M77.662,89.715h0.813v6.955H82.1v0.723h-4.438V89.715z"/>
	<path fill="#333333" d="M83.615,89.715h0.813v6.955h3.624v0.723h-4.438V89.715z"/>
</g>
<g>
	<circle fill="none" stroke="#AEAEAE" stroke-width="1.5" cx="55.279" cy="37.145" r="22.86"/>
	<path fill="none" stroke="#AEAEAE" stroke-width="1.5" d="M46.373,16.087c0,0-0.673,11.753,7.105,25.284
		C61.252,54.9,65.918,57.38,65.918,57.38"/>
	<path fill="none" stroke="#AEAEAE" stroke-width="1.5" d="M75.496,26.475c0,0-8.723,9.763-19.686,14.584
		c-11.461,5.04-21.629,4.904-21.629,4.904"/>
	<path fill="none" stroke="#AEAEAE" stroke-width="1.5" d="M62.993,15.622c0,0-1.898,1.877-3.296,7.008
		c-1.399,5.133-4.391,10.466-9.254,12.633c-9.874,4.397-17.661-2.199-17.661-2.199"/>
	<path fill="none" stroke="#AEAEAE" stroke-width="1.5" d="M51.688,59.727c0,0-2.876-2.958-2.022-5.836
		c0.857-2.877,2.383-6.09,6.827-7.555c4.446-1.465,10.435-0.455,14.788-0.842c4.355-0.393,6.037-2.266,6.037-2.266"/>
</g>
</svg>
