<?xml version="1.0" encoding="utf-8"?>
<!-- Generator: Adobe Illustrator 14.0.0, SVG Export Plug-In . SVG Version: 6.00 Build 43363)  -->
<!DOCTYPE svg PUBLIC "-//W3C//DTD SVG 1.1//EN" "http://www.w3.org/Graphics/SVG/1.1/DTD/svg11.dtd">
<svg version="1.1" id="Layer_1" xmlns="http://www.w3.org/2000/svg" xmlns:xlink="http://www.w3.org/1999/xlink" x="0px" y="0px"
	 width="110px" height="115px" viewBox="0 0 110 115" enable-background="new 0 0 110 115" xml:space="preserve">
<line fill="none" stroke="#AEAEAE" stroke-width="0.3938" x1="23.971" y1="73.37" x2="86.582" y2="73.37"/>
<g>
	<path fill="#333333" d="M35.573,89.715h2.608c1.435,0,2.111,0.847,2.111,1.885c0,0.757-0.338,1.311-0.993,1.524
		c0.993,0.237,1.581,0.994,1.581,2.011c0,1.275-0.791,2.258-2.428,2.258h-2.88V89.715z M38.238,92.854
		c0.892,0,1.242-0.508,1.242-1.208s-0.373-1.208-1.355-1.208h-1.738v2.416H38.238z M38.396,96.67c1.174,0,1.66-0.666,1.66-1.559
		c0-0.903-0.531-1.558-1.705-1.558h-1.965v3.116H38.396z"/>
	<path fill="#333333" d="M42.012,93.554c0-2.315,1.762-3.93,3.941-3.93c2.19,0,3.952,1.614,3.952,3.93
		c0,2.314-1.762,3.929-3.952,3.929C43.773,97.482,42.012,95.868,42.012,93.554z M49.058,93.554c0-1.829-1.31-3.195-3.104-3.195
		c-1.784,0-3.094,1.366-3.094,3.195s1.31,3.195,3.094,3.195C47.748,96.749,49.058,95.383,49.058,93.554z"/>
	<path fill="#333333" d="M52.956,93.215l-2.213-3.5h0.926l1.524,2.394c0.124,0.203,0.248,0.53,0.248,0.53s0.113-0.339,0.237-0.53
		l1.514-2.394h0.892l-2.202,3.5l2.654,4.178h-0.927l-1.953-3.071c-0.124-0.203-0.26-0.542-0.26-0.542s-0.112,0.339-0.237,0.542
		l-1.941,3.071h-0.893L52.956,93.215z"/>
	<path fill="#333333" d="M58.097,89.715h0.824v7.678h-0.824V89.715z"/>
	<path fill="#333333" d="M62.288,92.052c-0.215-0.26-0.531-0.712-0.531-0.712s0.068,0.543,0.068,0.87v5.183h-0.769v-7.757h0.136
		l4.584,5.42c0.215,0.259,0.531,0.711,0.531,0.711s-0.057-0.542-0.057-0.869v-5.183h0.757v7.757h-0.136L62.288,92.052z"/>
	<path fill="#333333" d="M68.67,93.554c0-2.315,1.717-3.93,3.952-3.93c1.106,0,2.044,0.316,2.677,0.993l-0.554,0.554
		c-0.497-0.52-1.174-0.812-2.123-0.812c-1.807,0-3.104,1.366-3.104,3.195s1.31,3.195,3.173,3.195c1.05,0,1.795-0.316,2.27-0.7
		v-1.581h-2.281v-0.723h3.049v2.677c-0.564,0.553-1.592,1.061-3.037,1.061C70.397,97.482,68.67,95.868,68.67,93.554z"/>
</g>
<g>
	<g>
		<path fill="none" stroke="#2D669A" stroke-width="1.5" stroke-linecap="round" stroke-linejoin="round" d="M54.494,37.704
			c-0.838-2.617-1.748-5.426-1.748-5.426s-0.725-2.15-0.529-4.068c0.194-1.92,0.703-5.777-0.199-9.029
			c-0.9-3.252-2.069-6.588-2.069-6.588s0.262-3.064-0.826-5.906c-1.088-2.846-1.696-3.502-4.335-3.457
			c-2.633,0.049-13.199,1.629-16.249,2.244c-3.047,0.619-4.422,2.225-5.166,3.855c-0.745,1.633-0.367,3.961-0.367,3.961
			s-3.128,0.129-3.144,3.15c-0.015,3.021,2.166,7.955,3.28,9.412c1.118,1.457,2.756,4.588,4.463,5.824
			c1.712,1.234,5.599,3.5,5.599,3.5s0.833,1.252,0.99,2.234c0.158,0.98,2.066,8.111,2.569,9.666
			c0.501,1.555,0.946,2.764,2.092,2.832c1.142,0.068,3.225-0.334,8.176-1.639"/>
		<path fill="none" stroke="#2D669A" stroke-width="1.5" stroke-linecap="round" stroke-linejoin="round" d="M29.061,22.759
			c0,0-0.689-5.051-2.494-7.652c-1.805-2.605-4.052-1.75-4.052-1.75"/>
		<path fill="none" stroke="#2D669A" stroke-width="1.5" stroke-linecap="round" stroke-linejoin="round" d="M24.898,10.216
			c0,0,3.243,14.754,15.037,11.291c11.762-3.451,7.023-13.592,7.023-13.592"/>
	</g>
	<g>
		<path fill="none" stroke="#2D669A" stroke-width="1.5" stroke-linecap="round" stroke-linejoin="round" d="M69.646,49.692
			c0,0,1.395-1.789,3.105-2.684c1.711-0.893,5.209-2.586,7.43-5.131c2.221-2.543,4.361-5.354,4.361-5.354s2.701-1.467,4.48-3.941
			c1.777-2.475,1.99-3.344,0.498-5.518c-1.486-2.176-8.623-10.131-10.812-12.336c-2.193-2.203-4.293-2.471-6.062-2.193
			c-1.771,0.275-3.51,1.871-3.51,1.871s-1.826-2.539-4.357-0.889c-2.533,1.65-5.453,6.186-6.057,7.918
			c-0.6,1.734-2.314,4.826-2.406,6.934c-0.09,2.105,0.158,6.6,0.158,6.6s-0.588,1.381-1.322,2.055
			c-0.73,0.668-5.639,6.188-6.66,7.461c-1.022,1.277-1.785,2.312-1.212,3.305c0.572,0.994,2.789,3.174,6.6,6.59
			c3.813,3.416,4.922,4.254,6.315,4.49c1.398,0.236,2.215-0.344,3.045-1.273C64.07,56.663,69.646,49.692,69.646,49.692z"/>
		<path fill="none" stroke="#2D669A" stroke-width="1.5" stroke-linecap="round" stroke-linejoin="round" d="M69.137,14.407
			c0,0-2.584,3.012-3.295,4.322c-0.824,1.521-0.873,2.471-0.873,2.471"/>
	</g>
	<path fill="none" stroke="#2D669A" stroke-linecap="round" stroke-linejoin="round" d="M33.994,36.231l9.056-2.223
		c2.588-0.637,5.352,1.557,6.17,4.895c0.822,3.342-0.613,6.561-3.199,7.199l-8.403,2.062"/>
	
		<line fill="none" stroke="#2D669A" stroke-linecap="round" stroke-linejoin="round" x1="61.832" y1="58.233" x2="48.134" y2="45.638"/>
	
		<line fill="none" stroke="#2D669A" stroke-linecap="round" stroke-linejoin="round" x1="56.059" y1="36.183" x2="70.104" y2="48.923"/>
</g>
</svg>
