<?xml version="1.0" encoding="utf-8"?>
<!-- Generator: Adobe Illustrator 14.0.0, SVG Export Plug-In . SVG Version: 6.00 Build 43363)  -->
<!DOCTYPE svg PUBLIC "-//W3C//DTD SVG 1.1//EN" "http://www.w3.org/Graphics/SVG/1.1/DTD/svg11.dtd">
<svg version="1.1" id="Layer_1" xmlns="http://www.w3.org/2000/svg" xmlns:xlink="http://www.w3.org/1999/xlink" x="0px" y="0px"
	 width="110px" height="115px" viewBox="0 0 110 115" enable-background="new 0 0 110 115" xml:space="preserve">
<line fill="none" stroke="#AEAEAE" stroke-width="0.3938" x1="23.971" y1="73.37" x2="86.582" y2="73.37"/>
<g>
	<path fill="#333333" d="M26.643,93.554c0-2.315,1.762-3.93,3.941-3.93c1.354,0,2.394,0.508,3.049,1.49l-0.621,0.452
		c-0.497-0.734-1.321-1.208-2.428-1.208c-1.796,0-3.094,1.366-3.094,3.195s1.298,3.195,3.094,3.195c1.117,0,1.976-0.485,2.529-1.287
		l0.632,0.44c-0.678,0.993-1.784,1.58-3.161,1.58C28.404,97.482,26.643,95.868,26.643,93.554z"/>
	<path fill="#333333" d="M34.789,93.554c0-2.315,1.762-3.93,3.941-3.93c2.19,0,3.952,1.614,3.952,3.93
		c0,2.314-1.762,3.929-3.952,3.929C36.551,97.482,34.789,95.868,34.789,93.554z M41.835,93.554c0-1.829-1.31-3.195-3.104-3.195
		c-1.784,0-3.094,1.366-3.094,3.195s1.31,3.195,3.094,3.195C40.525,96.749,41.835,95.383,41.835,93.554z"/>
	<path fill="#333333" d="M45.577,92.052c-0.215-0.26-0.531-0.712-0.531-0.712s0.068,0.543,0.068,0.87v5.183h-0.769v-7.757h0.136
		l4.584,5.42c0.215,0.259,0.531,0.711,0.531,0.711s-0.057-0.542-0.057-0.869v-5.183h0.757v7.757h-0.136L45.577,92.052z"/>
	<path fill="#333333" d="M51.959,93.554c0-2.315,1.762-3.93,3.941-3.93c1.354,0,2.394,0.508,3.049,1.49l-0.621,0.452
		c-0.497-0.734-1.321-1.208-2.428-1.208c-1.796,0-3.094,1.366-3.094,3.195s1.298,3.195,3.094,3.195c1.117,0,1.976-0.485,2.529-1.287
		l0.632,0.44c-0.678,0.993-1.784,1.58-3.161,1.58C53.721,97.482,51.959,95.868,51.959,93.554z"/>
	<path fill="#333333" d="M60.601,89.715h4.675v0.723h-3.861v3.602h3.443v0.711h-3.443v1.92h4.02v0.723h-4.833V89.715z"/>
	<path fill="#333333" d="M72.132,97.393h-0.959l-1.479-2.101c-0.26,0.046-0.542,0.068-0.813,0.068h-0.914v2.032h-0.813v-7.678h1.728
		c2.101,0,3.185,1.174,3.185,2.834c0,1.151-0.542,2.055-1.604,2.483L72.132,97.393z M68.835,94.648c1.739,0,2.383-0.892,2.383-2.1
		c0-1.209-0.655-2.111-2.383-2.111h-0.869v4.211H68.835z"/>
	<path fill="#333333" d="M75.398,90.438h-2.359v-0.723h5.532v0.723h-2.359v6.955h-0.813V90.438z"/>
	<path fill="#333333" d="M79.273,95.925l0.678-0.361c0.361,0.644,0.892,1.196,1.976,1.196c0.893,0,1.593-0.496,1.593-1.31
		c0-0.779-0.485-1.174-1.445-1.604l-0.61-0.282c-1.095-0.496-1.693-1.027-1.693-2.1c0-1.106,0.869-1.841,2.021-1.841
		c1.027,0,1.671,0.475,2.077,1.151l-0.654,0.407c-0.294-0.475-0.7-0.836-1.423-0.836c-0.757,0-1.22,0.44-1.22,1.096
		c0,0.677,0.361,0.981,1.22,1.377l0.609,0.282c1.276,0.564,1.931,1.197,1.931,2.349c0,1.265-1.005,2.032-2.382,2.032
		C80.481,97.482,79.681,96.737,79.273,95.925z"/>
</g>
<g>
	<g>
		<g>
			<path fill="none" stroke="#AEAEAE" stroke-width="1.5" stroke-linecap="round" stroke-linejoin="round" d="M43.152,35.704
				l-3.935,3.301c-0.981,1.304-3.898,3.597-4.098,6.074c-0.049,0.83,0.086,1.724,0.563,2.529c0.951,1.692,2.518,2.647,4.133,2.707
				c2.57,0.102,5.04-1.334,7.636-2.846c2.567-1.539,5.223-3.258,7.549-4.056c1.886-0.657,3.503-0.87,4.861-0.792
				c3.615,0.221,5.547,2.412,6.137,4.647c0.09,0.36,0.123,0.724,0.102,1.108c-0.029,3.143-4.887,7.627-11.715,10.244"/>
			<g>
				<path fill="none" stroke="#AEAEAE" stroke-width="1.5" stroke-linecap="round" stroke-linejoin="round" d="M46.697,35.628
					c-0.004,0.003-0.281,0.235-0.73,0.471c-0.444,0.238-0.883,0.359-1.43,0.328c-0.41-0.029-0.988-0.34-1.385-0.723
					c-1.043-1.041-1.226-1.583-1.197-2.186c0.027-0.481,0.199-0.766,0.408-1.045c0.207-0.277,0.472-0.558,0.472-0.558L56.798,14.87
					c0.246,1.047,0.756,2.137,1.611,3.24c1.645,2.128,3.41,3.219,5.117,3.613L46.697,35.628z"/>
				<path fill="none" stroke="#AEAEAE" stroke-width="1.5" stroke-linecap="round" stroke-linejoin="round" d="M71.56,18.276
					c-0.012,0.015-0.838,0.934-2.178,1.833c-1.344,0.902-3.174,1.751-5.123,1.636c-0.037-0.002-0.068-0.001-0.078-0.001
					c-1.74-0.126-3.633-0.989-5.516-3.411c-1.059-1.367-1.498-2.641-1.586-3.814c-0.018-0.258-0.02-0.506-0.004-0.751
					c0.1-1.802,1.033-3.384,1.961-4.513c0.926-1.125,1.818-1.77,1.814-1.779c0.074-0.067,0.875-0.962,2.191-1.837
					c1.311-0.881,3.104-1.708,5.02-1.594c1.457,0.086,3.01,0.685,4.594,2.281c1.699,1.721,2.174,3.499,2.084,5.195
					c-0.1,1.799-0.889,3.502-1.666,4.744C72.298,17.511,71.558,18.273,71.56,18.276z"/>
			</g>
		</g>
	</g>
	<path fill="#AEAEAE" d="M56.761,21.863c0.449,0.467,0.434,1.208-0.031,1.655l-1.561,1.512c-0.465,0.449-1.204,0.436-1.652-0.028
		l0,0c-0.448-0.467-0.435-1.207,0.029-1.657l1.563-1.509C55.57,21.385,56.312,21.398,56.761,21.863L56.761,21.863z"/>
</g>
</svg>
