<?xml version="1.0" encoding="utf-8"?>
<!-- Generator: Adobe Illustrator 14.0.0, SVG Export Plug-In . SVG Version: 6.00 Build 43363)  -->
<!DOCTYPE svg PUBLIC "-//W3C//DTD SVG 1.1//EN" "http://www.w3.org/Graphics/SVG/1.1/DTD/svg11.dtd">
<svg version="1.1" id="Layer_1" xmlns="http://www.w3.org/2000/svg" xmlns:xlink="http://www.w3.org/1999/xlink" x="0px" y="0px"
	 width="110px" height="115px" viewBox="0 0 110 115" enable-background="new 0 0 110 115" xml:space="preserve">
<line fill="none" stroke="#AEAEAE" stroke-width="0.3938" x1="23.971" y1="73.37" x2="86.582" y2="73.37"/>
<g>
	<path fill="#333333" d="M33.189,93.554c0-2.315,1.762-3.93,3.941-3.93c1.354,0,2.394,0.508,3.049,1.49l-0.621,0.452
		c-0.497-0.734-1.321-1.208-2.428-1.208c-1.796,0-3.094,1.366-3.094,3.195s1.298,3.195,3.094,3.195c1.117,0,1.976-0.485,2.529-1.287
		l0.632,0.44c-0.678,0.993-1.784,1.58-3.161,1.58C34.951,97.482,33.189,95.868,33.189,93.554z"/>
	<path fill="#333333" d="M46.811,97.393h-0.959l-1.479-2.101c-0.26,0.046-0.542,0.068-0.813,0.068h-0.914v2.032h-0.813v-7.678h1.728
		c2.101,0,3.185,1.174,3.185,2.834c0,1.151-0.542,2.055-1.604,2.483L46.811,97.393z M43.514,94.648c1.739,0,2.383-0.892,2.383-2.1
		c0-1.209-0.655-2.111-2.383-2.111h-0.869v4.211H43.514z"/>
	<path fill="#333333" d="M48.598,89.715h0.824v7.678h-0.824V89.715z"/>
	<path fill="#333333" d="M51.116,93.554c0-2.315,1.762-3.93,3.941-3.93c1.354,0,2.394,0.508,3.049,1.49l-0.621,0.452
		c-0.497-0.734-1.321-1.208-2.428-1.208c-1.796,0-3.094,1.366-3.094,3.195s1.298,3.195,3.094,3.195c1.117,0,1.976-0.485,2.529-1.287
		l0.632,0.44c-0.678,0.993-1.784,1.58-3.161,1.58C52.878,97.482,51.116,95.868,51.116,93.554z"/>
	<path fill="#333333" d="M61.057,93.452l2.902-3.737h0.914l-2.846,3.703l3.15,3.975h-1.005l-2.676-3.376l-0.926,1.118v2.258h-0.813
		v-7.678h0.813v3.636c0,0.361-0.045,0.802-0.068,1.05C60.673,94.073,60.91,93.644,61.057,93.452z"/>
	<path fill="#333333" d="M66.614,89.715h4.675v0.723h-3.861v3.602h3.443v0.711h-3.443v1.92h4.02v0.723h-4.833V89.715z"/>
	<path fill="#333333" d="M74.849,90.438h-2.359v-0.723h5.532v0.723h-2.359v6.955h-0.813V90.438z"/>
</g>
<g>
	<g>
		<path fill="none" stroke="#2D669A" stroke-width="1.5" d="M34.042,56.38c3.103,3.016,5.733,2.198,5.733,2.198L70.98,28.146
			c0,0-0.141-1.984,0.125-3.552c0.271-1.565,3.455-5.162,5.383-7.203c1.926-2.042,4.432-4.159,5.186-4.895
			c0.752-0.734,1.324-0.312,2.33-1.292c1.002-0.979,0.195-2.312,0.195-2.312l-1.424-1.459c0,0-1.311-0.844-2.316,0.135
			c-1.004,0.98-0.6,1.564-1.352,2.299c-0.752,0.732-2.932,3.185-5.021,5.061c-2.09,1.874-5.768,4.967-7.338,5.195
			c-1.572,0.228-3.555,0.037-3.555,0.037L31.989,50.593C31.989,50.593,31.106,53.202,34.042,56.38z"/>
		<path fill="none" stroke="#2D669A" stroke-width="1.5" d="M64.68,20.235c0,0,0.555,1.853,2.35,3.694
			c1.797,1.839,3.916,2.612,3.916,2.612"/>
	</g>
	<circle fill="none" stroke="#2D669A" stroke-width="1.5" cx="55.388" cy="54.902" r="4.264"/>
</g>
</svg>
