<?xml version="1.0" encoding="utf-8"?>
<!-- Generator: Adobe Illustrator 14.0.0, SVG Export Plug-In . SVG Version: 6.00 Build 43363)  -->
<!DOCTYPE svg PUBLIC "-//W3C//DTD SVG 1.1//EN" "http://www.w3.org/Graphics/SVG/1.1/DTD/svg11.dtd">
<svg version="1.1" id="Layer_1" xmlns="http://www.w3.org/2000/svg" xmlns:xlink="http://www.w3.org/1999/xlink" x="0px" y="0px"
	 width="110px" height="115px" viewBox="0 0 110 115" enable-background="new 0 0 110 115" xml:space="preserve">
<line fill="none" stroke="#AEAEAE" stroke-width="0.3938" x1="23.971" y1="73.37" x2="86.582" y2="73.37"/>
<g>
	<path fill="#333333" d="M28.325,89.715h4.618v0.723h-3.805v3.602h3.455v0.745h-3.455v2.608h-0.813V89.715z"/>
	<path fill="#333333" d="M34.11,93.554c0-2.315,1.762-3.93,3.941-3.93c2.19,0,3.952,1.614,3.952,3.93
		c0,2.314-1.762,3.929-3.952,3.929C35.872,97.482,34.11,95.868,34.11,93.554z M41.156,93.554c0-1.829-1.31-3.195-3.104-3.195
		c-1.784,0-3.094,1.366-3.094,3.195s1.31,3.195,3.094,3.195C39.847,96.749,41.156,95.383,41.156,93.554z"/>
	<path fill="#333333" d="M43.226,93.554c0-2.315,1.762-3.93,3.941-3.93c2.19,0,3.952,1.614,3.952,3.93
		c0,2.314-1.762,3.929-3.952,3.929C44.987,97.482,43.226,95.868,43.226,93.554z M50.271,93.554c0-1.829-1.31-3.195-3.104-3.195
		c-1.784,0-3.094,1.366-3.094,3.195s1.31,3.195,3.094,3.195C48.962,96.749,50.271,95.383,50.271,93.554z"/>
	<path fill="#333333" d="M54.013,90.438h-2.359v-0.723h5.532v0.723h-2.359v6.955h-0.813V90.438z"/>
	<path fill="#333333" d="M58.61,89.715h2.608c1.435,0,2.111,0.847,2.111,1.885c0,0.757-0.338,1.311-0.993,1.524
		c0.993,0.237,1.581,0.994,1.581,2.011c0,1.275-0.791,2.258-2.428,2.258h-2.88V89.715z M61.275,92.854
		c0.892,0,1.242-0.508,1.242-1.208s-0.373-1.208-1.355-1.208h-1.738v2.416H61.275z M61.434,96.67c1.174,0,1.66-0.666,1.66-1.559
		c0-0.903-0.531-1.558-1.705-1.558h-1.965v3.116H61.434z"/>
	<path fill="#333333" d="M67.986,89.636h0.136l3.252,7.757h-0.858l-0.519-1.287h-3.885l-0.508,1.287h-0.802L67.986,89.636z
		 M69.703,95.405l-1.355-3.41c-0.146-0.361-0.293-0.914-0.293-0.914s-0.158,0.553-0.305,0.914l-1.355,3.41H69.703z"/>
	<path fill="#333333" d="M72.845,89.715h0.813v6.955h3.624v0.723h-4.438V89.715z"/>
	<path fill="#333333" d="M78.798,89.715h0.813v6.955h3.624v0.723h-4.438V89.715z"/>
</g>
<g>
	<circle fill="none" stroke="#2D669A" stroke-width="1.5" cx="54.912" cy="37.748" r="20.936"/>
	<polygon fill="none" stroke="#2D669A" stroke-width="1.5" points="49.76,44.922 46.577,35.124 54.913,29.067 63.248,35.124 
		60.064,44.922 	"/>
	<polyline fill="none" stroke="#2D669A" stroke-width="1.5" points="54.913,29.067 54.913,22.203 48.752,17.736 	"/>
	<line fill="none" stroke="#2D669A" stroke-width="1.5" x1="54.913" y1="22.203" x2="61.408" y2="17.848"/>
	<polyline fill="none" stroke="#2D669A" stroke-width="1.5" points="63.068,35.159 69.504,32.768 71.547,25.437 	"/>
	<line fill="none" stroke="#2D669A" stroke-width="1.5" x1="69.504" y1="32.768" x2="75.85" y2="37.341"/>
	<polyline fill="none" stroke="#2D669A" stroke-width="1.5" points="60.055,44.232 64.113,49.768 71.725,49.727 	"/>
	<line fill="none" stroke="#2D669A" stroke-width="1.5" x1="64.113" y1="49.768" x2="61.449" y2="57.122"/>
	<polyline fill="none" stroke="#2D669A" stroke-width="1.5" points="50.106,44.54 45.923,49.983 48.085,57.28 	"/>
	<line fill="none" stroke="#2D669A" stroke-width="1.5" x1="45.923" y1="49.983" x2="38.117" y2="49.477"/>
	<polyline fill="none" stroke="#2D669A" stroke-width="1.5" points="46.973,35.095 40.519,32.758 34.22,37.027 	"/>
	<line fill="none" stroke="#2D669A" stroke-width="1.5" x1="40.519" y1="32.758" x2="38.638" y2="25.165"/>
</g>
</svg>
