<?xml version="1.0" encoding="utf-8"?>
<!-- Generator: Adobe Illustrator 14.0.0, SVG Export Plug-In . SVG Version: 6.00 Build 43363)  -->
<!DOCTYPE svg PUBLIC "-//W3C//DTD SVG 1.1//EN" "http://www.w3.org/Graphics/SVG/1.1/DTD/svg11.dtd">
<svg version="1.1" id="Layer_1" xmlns="http://www.w3.org/2000/svg" xmlns:xlink="http://www.w3.org/1999/xlink" x="0px" y="0px"
	 width="110px" height="115px" viewBox="0 0 110 115" enable-background="new 0 0 110 115" xml:space="preserve">
<line fill="none" stroke="#AEAEAE" stroke-width="0.3938" x1="23.971" y1="73.37" x2="86.582" y2="73.37"/>
<g>
	<path fill="#333333" d="M41.227,93.555c0-2.315,1.717-3.931,3.952-3.931c1.106,0,2.044,0.315,2.677,0.993l-0.554,0.554
		c-0.497-0.521-1.174-0.812-2.123-0.812c-1.807,0-3.104,1.365-3.104,3.195c0,1.828,1.31,3.194,3.173,3.194
		c1.05,0,1.795-0.315,2.27-0.7v-1.581h-2.281v-0.723h3.049v2.677c-0.564,0.553-1.592,1.061-3.037,1.061
		C42.954,97.482,41.227,95.868,41.227,93.555z"/>
	<path fill="#333333" d="M49.619,93.555c0-2.315,1.762-3.931,3.941-3.931c2.19,0,3.952,1.614,3.952,3.931
		c0,2.313-1.762,3.928-3.952,3.928C51.381,97.482,49.619,95.868,49.619,93.555z M56.665,93.555c0-1.83-1.31-3.195-3.104-3.195
		c-1.784,0-3.094,1.365-3.094,3.195c0,1.828,1.31,3.194,3.094,3.194C55.355,96.749,56.665,95.383,56.665,93.555z"/>
	<path fill="#333333" d="M59.176,89.715h0.812v6.955h3.625v0.723h-4.438L59.176,89.715L59.176,89.715z"/>
	<path fill="#333333" d="M65.129,89.715h4.618v0.723h-3.806v3.603h3.455v0.745h-3.455v2.607h-0.812V89.715z"/>
</g>
<g>
	<path fill="none" stroke="#2D669A" stroke-width="1.5" d="M59.045,31.31v1.379c0,0-1.598,3.27-1.758,4.475
		c-0.158,1.205-0.639,19.264-0.639,19.264l-1.354,3.617l-1.351-3.617c0,0-0.48-18.059-0.639-19.264
		c-0.162-1.205-1.758-4.475-1.758-4.475V31.31"/>
	<line fill="none" stroke="#2D669A" stroke-width="0.7876" x1="51.547" y1="33.257" x2="59.045" y2="33.257"/>
	<path fill="none" stroke="#2D669A" stroke-width="1.5" d="M40.51,16.999c0,8.102,6.566,14.668,14.666,14.668
		c8.104,0,14.672-6.566,14.672-14.668c0-8.098-6.568-14.666-14.672-14.666C47.077,2.333,40.51,8.901,40.51,16.999z"/>
	<path fill="none" stroke="#2D669A" stroke-width="1.5" stroke-linecap="round" stroke-linejoin="round" d="M46.513,15.163
		c0,0-1.433,0.676-1.433,2.227c0,1.549,1.352,2.305,1.352,2.305"/>
	<path fill="none" stroke="#2D669A" stroke-width="1.5" stroke-linecap="round" stroke-linejoin="round" d="M51.485,15.163
		c0,0-1.432,0.676-1.432,2.227c0,1.549,1.354,2.305,1.354,2.305"/>
	<path fill="none" stroke="#2D669A" stroke-width="1.5" stroke-linecap="round" stroke-linejoin="round" d="M49.264,9.544
		c0,0-1.431,0.676-1.431,2.227c0,1.549,1.352,2.303,1.352,2.303"/>
	<path fill="none" stroke="#2D669A" stroke-width="1.5" stroke-linecap="round" stroke-linejoin="round" d="M53.542,8.987
		c0,0-1.433,0.678-1.433,2.227c0,1.551,1.353,2.305,1.353,2.305"/>
	<path fill="none" stroke="#2D669A" stroke-width="1.5" stroke-linecap="round" stroke-linejoin="round" d="M53.542,20.003
		c0,0-1.433,0.678-1.433,2.229c0,1.549,1.353,2.303,1.353,2.303"/>
	<path fill="none" stroke="#2D669A" stroke-width="1.5" stroke-linecap="round" stroke-linejoin="round" d="M49.264,20.667
		c0,0-1.431,0.676-1.431,2.227c0,1.549,1.352,2.303,1.352,2.303"/>
</g>
</svg>
