<?xml version="1.0" encoding="utf-8"?>
<!-- Generator: Adobe Illustrator 14.0.0, SVG Export Plug-In . SVG Version: 6.00 Build 43363)  -->
<!DOCTYPE svg PUBLIC "-//W3C//DTD SVG 1.1//EN" "http://www.w3.org/Graphics/SVG/1.1/DTD/svg11.dtd">
<svg version="1.1" id="Layer_1" xmlns="http://www.w3.org/2000/svg" xmlns:xlink="http://www.w3.org/1999/xlink" x="0px" y="0px"
	 width="110px" height="115px" viewBox="0 0 110 115" enable-background="new 0 0 110 115" xml:space="preserve">
<line fill="none" stroke="#AEAEAE" stroke-width="0.3938" x1="23.971" y1="73.37" x2="86.582" y2="73.37"/>
<g>
	<path fill="#333333" d="M39.052,89.715h0.813v4.324h4.11v-4.324h0.812v7.678h-0.812v-2.608h-4.11v2.608h-0.813V89.715z"/>
	<path fill="#333333" d="M46.27,95.056c0-1.366,1.084-2.439,2.484-2.439c1.389,0,2.461,1.073,2.461,2.439s-1.072,2.427-2.461,2.427
		C47.354,97.482,46.27,96.422,46.27,95.056z M50.413,95.056c0-1.005-0.666-1.751-1.659-1.751c-1.005,0-1.683,0.746-1.683,1.751
		s0.678,1.75,1.683,1.75C49.747,96.806,50.413,96.061,50.413,95.056z"/>
	<path fill="#333333" d="M52.302,95.056c0-1.366,1.05-2.439,2.428-2.439c0.836,0,1.411,0.316,1.841,0.836l-0.565,0.463
		c-0.282-0.373-0.688-0.599-1.275-0.599c-0.994,0-1.615,0.745-1.615,1.739c0,0.993,0.621,1.738,1.615,1.738
		c0.644,0,1.05-0.26,1.344-0.609l0.542,0.463c-0.44,0.53-1.017,0.835-1.886,0.835C53.352,97.482,52.302,96.422,52.302,95.056z"/>
	<path fill="#333333" d="M58.661,97.393h-0.79V89.24h0.79v5.228c0,0.237-0.022,0.475-0.057,0.667l2.225-2.417h0.915l-1.796,1.965
		l2.078,2.71h-0.938l-1.693-2.19l-0.734,0.768V97.393z"/>
	<path fill="#333333" d="M65.111,96.816c0.7,0,1.175-0.282,1.479-0.621l0.485,0.475c-0.429,0.485-1.05,0.812-1.965,0.812
		c-1.536,0-2.529-1.061-2.529-2.427s1.05-2.439,2.416-2.439c1.502,0,2.405,1.151,2.349,2.698h-3.975
		C63.474,96.207,64.084,96.816,65.111,96.816z M66.557,94.717c-0.067-0.802-0.576-1.435-1.559-1.435
		c-0.892,0-1.49,0.576-1.614,1.435H66.557z"/>
	<path fill="#333333" d="M70.025,96.997l-1.987-4.279h0.869l1.321,2.902c0.124,0.293,0.215,0.79,0.215,0.79s0.079-0.497,0.215-0.79
		l1.219-2.902h0.813l-3.049,7.068h-0.813L70.025,96.997z"/>
</g>
<g>
	<path fill="none" stroke="#AEAEAE" stroke-width="1.5" d="M58.376,46.506c0,0-1.904,2.422-3.3,2.922s-7.288,1.117-9.54,1.273
		c-2.254,0.155-5.795,0.623-6.777,0.76c-0.985,0.133-1.41,0.693-1.743,1.355c-0.332,0.664-2.695,7.447-0.557,7.577
		c2.138,0.13,6.444-0.097,10.872-0.706c4.427-0.607,8.363-1.15,9.635-2.828c1.272-1.679,29.145-44.472,29.145-44.472
		s-0.416-1.196-1.358-1.741s-2.027-0.318-2.027-0.318L58.376,46.506z"/>
	<g>
		<ellipse fill="none" stroke="#AEAEAE" stroke-width="1.5" cx="44.621" cy="36.393" rx="8.402" ry="3.546"/>
		<path fill="none" stroke="#AEAEAE" stroke-width="1.5" d="M36.219,36.393v4.043c0,1.957,3.761,3.544,8.401,3.544
			c4.64,0,8.403-1.587,8.403-3.544v-4.043"/>
	</g>
</g>
</svg>
