<?xml version="1.0" encoding="utf-8"?>
<!-- Generator: Adobe Illustrator 14.0.0, SVG Export Plug-In . SVG Version: 6.00 Build 43363)  -->
<!DOCTYPE svg PUBLIC "-//W3C//DTD SVG 1.1//EN" "http://www.w3.org/Graphics/SVG/1.1/DTD/svg11.dtd">
<svg version="1.1" id="Layer_1" xmlns="http://www.w3.org/2000/svg" xmlns:xlink="http://www.w3.org/1999/xlink" x="0px" y="0px"
	 width="110px" height="115px" viewBox="0 0 110 115" enable-background="new 0 0 110 115" xml:space="preserve">
<line fill="none" stroke="#AEAEAE" stroke-width="0.3938" x1="23.971" y1="73.37" x2="86.582" y2="73.37"/>
<g>
	<path fill="#333333" d="M38.42,89.715h0.813v4.324h4.11v-4.324h0.812v7.678h-0.812v-2.608h-4.11v2.608H38.42V89.715z"/>
	<path fill="#333333" d="M45.818,93.554c0-2.315,1.762-3.93,3.941-3.93c2.19,0,3.952,1.614,3.952,3.93
		c0,2.314-1.762,3.929-3.952,3.929C47.58,97.482,45.818,95.868,45.818,93.554z M52.864,93.554c0-1.829-1.31-3.195-3.104-3.195
		c-1.784,0-3.094,1.366-3.094,3.195s1.31,3.195,3.094,3.195C51.555,96.749,52.864,95.383,52.864,93.554z"/>
	<path fill="#333333" d="M60.354,97.393h-0.959l-1.479-2.101c-0.26,0.046-0.542,0.068-0.813,0.068h-0.914v2.032h-0.813v-7.678h1.728
		c2.101,0,3.185,1.174,3.185,2.834c0,1.151-0.542,2.055-1.604,2.483L60.354,97.393z M57.058,94.648c1.739,0,2.383-0.892,2.383-2.1
		c0-1.209-0.655-2.111-2.383-2.111h-0.869v4.211H57.058z"/>
	<path fill="#333333" d="M61.385,95.925l0.678-0.361c0.361,0.644,0.892,1.196,1.976,1.196c0.893,0,1.593-0.496,1.593-1.31
		c0-0.779-0.485-1.174-1.445-1.604l-0.61-0.282c-1.095-0.496-1.693-1.027-1.693-2.1c0-1.106,0.869-1.841,2.021-1.841
		c1.027,0,1.671,0.475,2.077,1.151l-0.654,0.407c-0.294-0.475-0.7-0.836-1.423-0.836c-0.757,0-1.22,0.44-1.22,1.096
		c0,0.677,0.361,0.981,1.22,1.377l0.609,0.282c1.276,0.564,1.931,1.197,1.931,2.349c0,1.265-1.005,2.032-2.382,2.032
		C62.593,97.482,61.792,96.737,61.385,95.925z"/>
	<path fill="#333333" d="M68.105,89.715h4.675v0.723h-3.861v3.602h3.443v0.711h-3.443v1.92h4.02v0.723h-4.833V89.715z"/>
	<path fill="#333333" d="M40.936,110.948h-0.959l-1.479-2.101c-0.26,0.046-0.542,0.068-0.813,0.068H36.77v2.032h-0.813v-7.679h1.728
		c2.101,0,3.185,1.175,3.185,2.835c0,1.151-0.542,2.055-1.604,2.483L40.936,110.948z M37.639,108.204c1.739,0,2.383-0.892,2.383-2.1
		s-0.655-2.112-2.383-2.112H36.77v4.212H37.639z"/>
	<path fill="#333333" d="M45.127,103.191h0.136l3.252,7.757h-0.858l-0.519-1.287h-3.885l-0.508,1.287h-0.802L45.127,103.191z
		 M46.844,108.961l-1.355-3.41c-0.146-0.361-0.293-0.914-0.293-0.914s-0.158,0.553-0.305,0.914l-1.355,3.41H46.844z"/>
	<path fill="#333333" d="M49.038,107.109c0-2.315,1.762-3.93,3.941-3.93c1.354,0,2.394,0.508,3.049,1.49l-0.621,0.452
		c-0.497-0.734-1.321-1.208-2.428-1.208c-1.796,0-3.094,1.366-3.094,3.195s1.298,3.195,3.094,3.195c1.117,0,1.976-0.485,2.529-1.287
		l0.632,0.44c-0.678,0.993-1.784,1.581-3.161,1.581C50.8,111.039,49.038,109.424,49.038,107.109z"/>
	<path fill="#333333" d="M57.714,103.27h0.824v7.679h-0.824V103.27z"/>
	<path fill="#333333" d="M61.904,105.607c-0.215-0.26-0.531-0.711-0.531-0.711s0.068,0.541,0.068,0.869v5.183h-0.769v-7.757h0.136
		l4.584,5.42c0.215,0.26,0.531,0.711,0.531,0.711s-0.057-0.542-0.057-0.869v-5.184h0.757v7.758h-0.136L61.904,105.607z"/>
	<path fill="#333333" d="M68.286,107.109c0-2.315,1.717-3.93,3.952-3.93c1.106,0,2.044,0.316,2.677,0.994l-0.554,0.553
		c-0.497-0.52-1.175-0.812-2.123-0.812c-1.807,0-3.104,1.366-3.104,3.195s1.31,3.195,3.173,3.195c1.05,0,1.795-0.316,2.27-0.7
		v-1.581h-2.281v-0.723h3.049v2.677c-0.564,0.553-1.592,1.062-3.037,1.062C70.014,111.039,68.286,109.424,68.286,107.109z"/>
</g>
<g>
	<path fill="none" stroke="#AEAEAE" stroke-width="1.5" stroke-linecap="round" stroke-linejoin="round" d="M44.983,58.839
		c0,0,4.923-10.043,7.48-11.814c2.56-1.771,8.464-4.727,8.464-4.727"/>
	<path fill="none" stroke="#AEAEAE" stroke-width="1.5" stroke-linecap="round" stroke-linejoin="round" d="M61.912,37.179
		c0,0-1.968,4.135,0,7.283c1.971,3.152,7.877,4.137,9.65,4.137c1.771,0,6.497,1.576,8.072,2.363c1.576,0.787,3.15,1.574,4.134,3.15
		c0.985,1.574,2.954,1.969,4.137,1.773c1.182-0.199,4.332-2.168,5.119-3.547c0.787-1.377,0.59-4.725,0-6.104
		c-0.591-1.377-3.348-4.135-5.514-5.906c-2.164-1.773-5.315-7.09-6.103-8.271c-0.788-1.182-2.364-4.135-4.136-5.711
		c-1.772-1.574-6.105-3.627-6.105-3.627s0.985-3.066,0.591-5.824c-0.394-2.758-1.969-5.514-1.969-5.514s-3.347,3.545-3.938,5.316
		c-0.591,1.773-0.985,3.74-0.985,3.74s-11.614,0.986-19.293,3.744c-7.679,2.756-17.723,9.057-17.723,9.057"/>
	<path fill="none" stroke="#AEAEAE" stroke-width="1.0502" stroke-linecap="round" stroke-linejoin="round" d="M64.866,20.438
		c0,0-1.561-8.406-8.041-7.793c-6.481,0.613-8.127,1.91-11.532,2.154c-3.406,0.246-9.669-2.082-9.669-2.082s2.088,2.941,7.032,3.922
		c4.942,0.98,6.343,0.26,8.239,0.369c4.282,0.242,4.173,3.236,4.173,3.236"/>
	<path fill="none" stroke="#AEAEAE" stroke-width="1.0502" stroke-linecap="round" stroke-linejoin="round" d="M55.069,20.245
		c0,0-7.578-1.225-11.313-1.104c-3.736,0.123-6.045,0.246-8.351-0.244c-2.305-0.49-6.482-2.086-6.482-2.086
		s5.953,4.795,11.535,6.008c2.987,0.648,2.855,1.41,2.855,1.41"/>
	<path fill="none" stroke="#AEAEAE" stroke-width="1.0502" stroke-linecap="round" stroke-linejoin="round" d="M43.313,24.229
		c0,0-4.303-0.824-10.106-1.779c-4.378-0.719-9.996,0.613-9.996,0.613s4.505-0.367,6.701,0.859c2.197,1.225,3.516,1.898,4.613,2.389
		c1.1,0.488,2.253,1.227,2.253,1.227"/>
	<path fill="none" stroke="#AEAEAE" stroke-width="1.0502" stroke-linecap="round" stroke-linejoin="round" d="M35.553,27.265
		c0,0-4.889-0.857-8.184-0.121c-3.297,0.734-3.517,1.346-5.715,2.449c-2.195,1.105-2.744,1.227-4.612,1.596
		c-1.868,0.365-2.639-0.123-2.639-0.123s1.979,1.594,6.264,1.104c4.285-0.492,3.955-1.227,6.922-1.35
		c2.966-0.121,3.955,0.123,3.955,0.123"/>
</g>
</svg>
