<?xml version="1.0" encoding="utf-8"?>
<!-- Generator: Adobe Illustrator 14.0.0, SVG Export Plug-In . SVG Version: 6.00 Build 43363)  -->
<!DOCTYPE svg PUBLIC "-//W3C//DTD SVG 1.1//EN" "http://www.w3.org/Graphics/SVG/1.1/DTD/svg11.dtd">
<svg version="1.1" id="Layer_1" xmlns="http://www.w3.org/2000/svg" xmlns:xlink="http://www.w3.org/1999/xlink" x="0px" y="0px"
	 width="87px" height="83.5px" viewBox="0 0 87 83.5" enable-background="new 0 0 87 83.5" xml:space="preserve">
<path fill="#2D669A" d="M80.596,63.702c0,8.255-6.691,14.946-14.945,14.946h-45.14c-8.253,0-14.944-6.691-14.944-14.946V19.874
	c0-8.256,6.691-14.947,14.944-14.947h45.14c8.254,0,14.945,6.691,14.945,14.947V63.702z"/>
<g>
	<defs>
		<path id="SVGID_1_" d="M80.596,63.271c0,8.255-6.691,14.946-14.945,14.946h-45.14c-8.253,0-14.944-6.691-14.944-14.946V19.443
			c0-8.255,6.691-14.946,14.944-14.946h45.14c8.254,0,14.945,6.691,14.945,14.946V63.271z"/>
	</defs>
	<clipPath id="SVGID_2_">
		<use xlink:href="#SVGID_1_"  overflow="visible"/>
	</clipPath>
	<g clip-path="url(#SVGID_2_)">
		<polygon fill="#FFFFFF" points="109.746,27.18 66.996,69.932 25.23,26.423 67.767,-16.329 		"/>
		<polygon fill="#2D669A" points="5.876,45.706 17.946,57.776 30.213,45.511 60.584,75.883 74.018,62.449 43.646,32.077 
			55.911,19.812 43.84,7.741 		"/>
		<g>
			
				<rect x="14.899" y="6.579" transform="matrix(0.7071 -0.7071 0.7071 0.7071 7.9751 36.8189)" fill="#2D669A" width="67.065" height="4.408"/>
			
				<rect x="19.482" y="11.161" transform="matrix(0.7071 -0.7071 0.7071 0.7071 6.0771 41.4027)" fill="#2D669A" width="67.066" height="4.41"/>
			
				<rect x="24.066" y="15.745" transform="matrix(0.7071 -0.7071 0.7071 0.7071 4.1782 45.9868)" fill="#2D669A" width="67.066" height="4.41"/>
			
				<rect x="28.649" y="20.329" transform="matrix(0.7071 -0.7071 0.7071 0.7071 2.2791 50.5697)" fill="#2D669A" width="67.067" height="4.409"/>
			
				<rect x="33.234" y="24.915" transform="matrix(0.7071 -0.7071 0.7071 0.7071 0.3799 55.1535)" fill="#2D669A" width="67.067" height="4.407"/>
			
				<rect x="37.816" y="29.496" transform="matrix(0.7071 -0.7071 0.7071 0.7071 -1.5176 59.737)" fill="#2D669A" width="67.066" height="4.409"/>
			
				<rect x="42.402" y="34.081" transform="matrix(0.7071 -0.7071 0.7071 0.7071 -3.4164 64.3214)" fill="#2D669A" width="67.066" height="4.408"/>
			
				<rect x="46.985" y="38.664" transform="matrix(0.7071 -0.7071 0.7071 0.7071 -5.3147 68.9058)" fill="#2D669A" width="67.067" height="4.408"/>
			<polygon fill="#2D669A" points="110.373,23.73 62.949,71.154 59.832,67.605 107.256,20.183 			"/>
		</g>
		<g>
			<defs>
				<polygon id="SVGID_3_" points="5.876,45.706 17.946,57.776 30.213,45.511 62.512,77.811 75.945,64.162 43.646,31.862 
					56.127,19.597 44.056,7.525 				"/>
			</defs>
			<clipPath id="SVGID_4_">
				<use xlink:href="#SVGID_3_"  overflow="visible"/>
			</clipPath>
			<g clip-path="url(#SVGID_4_)">
				
					<rect x="-6.392" y="13.755" transform="matrix(0.7071 -0.7071 0.7071 0.7071 -0.0454 31.8065)" fill="#FFFFFF" width="89.527" height="4.406"/>
				
					<rect x="-1.811" y="18.335" transform="matrix(0.7071 -0.7071 0.7071 0.7071 -1.9425 36.3874)" fill="#FFFFFF" width="89.528" height="4.406"/>
				<polygon fill="#FFFFFF" points="80.529,-4.975 17.223,58.33 14.322,55.215 77.629,-8.09 				"/>
				
					<rect x="7.351" y="27.498" transform="matrix(0.7071 -0.7071 0.7071 0.7071 -5.7374 45.5504)" fill="#FFFFFF" width="89.526" height="4.406"/>
				
					<rect x="11.931" y="32.079" transform="matrix(0.7071 -0.7071 0.7071 0.7071 -7.6347 50.1309)" fill="#FFFFFF" width="89.528" height="4.405"/>
				
					<rect x="16.513" y="36.66" transform="matrix(0.7071 -0.7071 0.7071 0.7071 -9.5327 54.7116)" fill="#FFFFFF" width="89.526" height="4.405"/>
				
					<rect x="21.094" y="41.241" transform="matrix(0.7071 -0.7071 0.7071 0.7071 -11.4302 59.2925)" fill="#FFFFFF" width="89.527" height="4.404"/>
				
					<rect x="25.674" y="45.821" transform="matrix(0.7071 -0.7071 0.7071 0.7071 -13.3272 63.8731)" fill="#FFFFFF" width="89.528" height="4.406"/>
				
					<rect x="30.256" y="50.403" transform="matrix(0.7071 -0.7071 0.7071 0.7071 -15.2253 68.4544)" fill="#FFFFFF" width="89.528" height="4.405"/>
				
					<rect x="35.047" y="55.195" transform="matrix(0.7071 -0.7071 0.7071 0.7071 -17.2098 73.2454)" fill="#FFFFFF" width="89.528" height="4.405"/>
			</g>
		</g>
	</g>
</g>
</svg>
