<?xml version="1.0" encoding="utf-8"?>
<!-- Generator: Adobe Illustrator 14.0.0, SVG Export Plug-In . SVG Version: 6.00 Build 43363)  -->
<!DOCTYPE svg PUBLIC "-//W3C//DTD SVG 1.1//EN" "http://www.w3.org/Graphics/SVG/1.1/DTD/svg11.dtd">
<svg version="1.1" id="Layer_1" xmlns="http://www.w3.org/2000/svg" xmlns:xlink="http://www.w3.org/1999/xlink" x="0px" y="0px"
	 width="624.5px" height="94px" viewBox="0 0 624.5 94" enable-background="new 0 0 624.5 94" xml:space="preserve">
<g>
	<path fill="#2D669A" d="M118.993,36.925v21.329h-5.887V36.925h-8.141v-5.428h22.169v5.428H118.993z"/>
	<path fill="#2D669A" d="M131.15,35.511v-5.16h6.116v5.16H131.15z M131.303,58.254V37.766h5.81v20.488H131.303z"/>
	<path fill="#2D669A" d="M151.867,58.713c-6.154,0-10.664-4.74-10.664-10.588v-0.076c0-5.849,4.472-10.665,10.741-10.665
		c3.86,0,6.269,1.3,8.18,3.44l-3.555,3.822c-1.3-1.376-2.599-2.255-4.663-2.255c-2.905,0-4.969,2.561-4.969,5.581v0.077
		c0,3.134,2.026,5.656,5.198,5.656c1.95,0,3.287-0.841,4.702-2.179l3.402,3.44C158.25,57.146,155.957,58.713,151.867,58.713z"/>
	<path fill="#2D669A" d="M176.829,58.254l-5.351-8.371l-2.026,2.141v6.23h-5.81V30.351h5.81V45.22l6.804-7.454h6.957l-7.797,8.066
		l8.065,12.422H176.829z"/>
	<path fill="#2D669A" d="M203.97,50.036h-14.257c0.574,2.638,2.408,4.013,5.007,4.013c1.949,0,3.364-0.611,4.969-2.102l3.325,2.943
		c-1.911,2.369-4.663,3.822-8.371,3.822c-6.154,0-10.703-4.319-10.703-10.588v-0.076c0-5.849,4.166-10.665,10.129-10.665
		c6.842,0,9.977,5.313,9.977,11.123v0.077C204.046,49.156,204.008,49.501,203.97,50.036z M194.07,42.047
		c-2.408,0-3.975,1.72-4.434,4.357h8.753C198.045,43.806,196.516,42.047,194.07,42.047z"/>
	<path fill="#2D669A" d="M214.903,58.598c-3.555,0-5.963-1.414-5.963-6.154v-9.708h-2.446v-4.969h2.446V32.53h5.81v5.236h4.816
		v4.969h-4.816v8.753c0,1.338,0.573,1.988,1.873,1.988c1.07,0,2.026-0.268,2.867-0.727v4.663
		C218.267,58.139,216.853,58.598,214.903,58.598z"/>
	<path fill="#2D669A" d="M234.017,34.976c-1.338,0-2.102,0.688-2.102,2.217v0.803h4.702v4.74h-4.625v15.519h-5.81V42.735h-2.408
		v-4.778h2.408v-1.3c0-4.51,2.255-6.574,6.345-6.574c1.834,0,3.058,0.229,4.128,0.573v4.816
		C235.813,35.167,235.011,34.976,234.017,34.976z"/>
	<path fill="#2D669A" d="M241.242,35.511v-5.16h6.115v5.16H241.242z M241.396,58.254V37.766h5.81v20.488H241.396z"/>
	<path fill="#2D669A" d="M265.438,58.254V46.825c0-2.752-1.3-4.167-3.517-4.167s-3.631,1.415-3.631,4.167v11.429h-5.81V37.766h5.81
		v2.905c1.338-1.72,3.058-3.288,6.001-3.288c4.396,0,6.957,2.905,6.957,7.606v13.264H265.438z"/>
	<path fill="#2D669A" d="M290.705,58.254v-2.943c-1.414,1.911-3.363,3.326-6.384,3.326c-4.777,0-9.326-3.746-9.326-10.588v-0.077
		c0-6.842,4.473-10.588,9.326-10.588c3.097,0,5.008,1.415,6.384,3.058V30.351h5.81v27.903H290.705z M290.781,47.972
		c0-3.401-2.255-5.657-4.969-5.657s-5.007,2.216-5.007,5.657v0.077c0,3.401,2.293,5.656,5.007,5.656s4.969-2.255,4.969-5.656V47.972
		z"/>
	<path fill="#2D669A" d="M320.368,50.036H306.11c0.573,2.638,2.408,4.013,5.008,4.013c1.949,0,3.363-0.611,4.969-2.102l3.325,2.943
		c-1.911,2.369-4.663,3.822-8.371,3.822c-6.153,0-10.702-4.319-10.702-10.588v-0.076c0-5.849,4.166-10.665,10.129-10.665
		c6.842,0,9.977,5.313,9.977,11.123v0.077C320.444,49.156,320.406,49.501,320.368,50.036z M310.468,42.047
		c-2.408,0-3.975,1.72-4.434,4.357h8.753C314.443,43.806,312.914,42.047,310.468,42.047z"/>
	<path fill="#2D669A" d="M336.232,43.461c-3.86,0-6.23,2.332-6.23,7.225v7.568h-5.81V37.766h5.81v4.128
		c1.185-2.829,3.096-4.664,6.536-4.511v6.077H336.232z"/>
	<path fill="#2D669A" d="M347.739,58.637c-2.867,0-6.077-0.956-8.791-3.097l2.484-3.822c2.217,1.605,4.549,2.446,6.46,2.446
		c1.682,0,2.446-0.611,2.446-1.529v-0.076c0-1.262-1.988-1.682-4.243-2.369c-2.867-0.842-6.116-2.18-6.116-6.154v-0.076
		c0-4.167,3.364-6.499,7.492-6.499c2.6,0,5.428,0.879,7.645,2.37l-2.217,4.014c-2.025-1.186-4.052-1.911-5.542-1.911
		c-1.415,0-2.141,0.611-2.141,1.414v0.077c0,1.146,1.949,1.682,4.166,2.445c2.867,0.956,6.192,2.332,6.192,6.078v0.076
		C355.575,56.572,352.173,58.637,347.739,58.637z"/>
	<path fill="#2D669A" d="M373.619,58.254V31.498h1.987v26.756H373.619z"/>
	<path fill="#2D669A" d="M398.617,58.254V46.672c0-4.014-2.256-6.65-6.192-6.65c-3.822,0-6.766,2.904-6.766,6.957v11.275h-1.873
		V38.76h1.873v3.631c1.3-2.293,3.479-4.09,7.033-4.09c4.931,0,7.798,3.364,7.798,8.027v11.926H398.617z"/>
	<path fill="#2D669A" d="M414.1,58.598c-3.02,0-5.466-1.644-5.466-5.352V40.48h-2.829v-1.72h2.829v-6.23h1.873v6.23h6.842v1.72
		h-6.842v12.576c0,2.79,1.644,3.784,3.898,3.784c0.956,0,1.759-0.191,2.867-0.688v1.758C416.278,58.369,415.322,58.598,414.1,58.598
		z"/>
	<path fill="#2D669A" d="M430.996,56.954c3.02,0,5.083-1.337,6.688-3.058l1.3,1.146c-1.987,2.141-4.319,3.67-8.065,3.67
		c-5.122,0-9.556-4.09-9.556-10.168v-0.076c0-5.657,3.976-10.167,9.25-10.167c5.466,0,8.944,4.434,8.944,10.206v0.077
		c0,0.268,0,0.382-0.038,0.688h-16.169C423.695,54.126,427.174,56.954,430.996,56.954z M437.532,47.59
		c-0.268-3.938-2.523-7.568-6.995-7.568c-3.86,0-6.842,3.249-7.187,7.568H437.532z"/>
	<path fill="#2D669A" d="M455.728,40.519c-4.511,0-8.447,3.401-8.447,9.747v7.988h-1.873V38.76h1.873v5.542
		c1.529-3.479,4.778-6.001,8.639-5.849v2.064H455.728z"/>
	<path fill="#2D669A" d="M475.911,58.254V46.672c0-4.014-2.256-6.65-6.192-6.65c-3.822,0-6.766,2.904-6.766,6.957v11.275h-1.873
		V38.76h1.873v3.631c1.3-2.293,3.479-4.09,7.033-4.09c4.931,0,7.798,3.364,7.798,8.027v11.926H475.911z"/>
	<path fill="#2D669A" d="M498.273,58.254v-3.249c-1.338,1.873-3.745,3.708-7.453,3.708c-3.631,0-7.53-2.064-7.53-6.116v-0.076
		c0-4.052,3.479-6.345,8.524-6.345c2.714,0,4.586,0.344,6.459,0.84v-0.84c0-3.938-2.408-5.963-6.421-5.963
		c-2.37,0-4.319,0.65-6.116,1.567l-0.688-1.644c2.141-0.994,4.242-1.682,6.918-1.682c5.008,0,8.142,2.599,8.142,7.646v12.154
		H498.273z M498.312,48.736c-1.644-0.42-3.822-0.879-6.612-0.879c-4.128,0-6.422,1.834-6.422,4.549v0.076
		c0,2.828,2.676,4.472,5.657,4.472c3.976,0,7.377-2.446,7.377-6.001V48.736z"/>
	<path fill="#2D669A" d="M513.527,58.598c-3.02,0-5.466-1.644-5.466-5.352V40.48h-2.829v-1.72h2.829v-6.23h1.873v6.23h6.842v1.72
		h-6.842v12.576c0,2.79,1.644,3.784,3.898,3.784c0.956,0,1.759-0.191,2.867-0.688v1.758
		C515.706,58.369,514.75,58.598,513.527,58.598z"/>
	<path fill="#2D669A" d="M522.74,33.676v-2.561h2.332v2.561H522.74z M522.97,58.254V38.76h1.873v19.494H522.97z"/>
	<path fill="#2D669A" d="M541.241,58.713c-5.771,0-9.977-4.664-9.977-10.129v-0.077c0-5.466,4.243-10.206,10.053-10.206
		c5.771,0,9.977,4.664,9.977,10.129v0.076C551.294,53.973,547.051,58.713,541.241,58.713z M549.268,48.507
		c0-4.701-3.517-8.447-8.026-8.447c-4.625,0-7.95,3.784-7.95,8.371v0.076c0,4.702,3.517,8.447,8.026,8.447
		c4.625,0,7.95-3.784,7.95-8.37V48.507z"/>
	<path fill="#2D669A" d="M570.942,58.254V46.672c0-4.014-2.256-6.65-6.192-6.65c-3.822,0-6.766,2.904-6.766,6.957v11.275h-1.873
		V38.76h1.873v3.631c1.3-2.293,3.479-4.09,7.033-4.09c4.931,0,7.798,3.364,7.798,8.027v11.926H570.942z"/>
	<path fill="#2D669A" d="M593.305,58.254v-3.249c-1.338,1.873-3.745,3.708-7.453,3.708c-3.631,0-7.53-2.064-7.53-6.116v-0.076
		c0-4.052,3.479-6.345,8.524-6.345c2.714,0,4.586,0.344,6.459,0.84v-0.84c0-3.938-2.408-5.963-6.421-5.963
		c-2.37,0-4.319,0.65-6.116,1.567l-0.688-1.644c2.141-0.994,4.242-1.682,6.918-1.682c5.008,0,8.142,2.599,8.142,7.646v12.154
		H593.305z M593.343,48.736c-1.644-0.42-3.822-0.879-6.612-0.879c-4.128,0-6.422,1.834-6.422,4.549v0.076
		c0,2.828,2.676,4.472,5.657,4.472c3.976,0,7.377-2.446,7.377-6.001V48.736z"/>
	<path fill="#2D669A" d="M602.519,58.254V30.351h1.873v27.903H602.519z"/>
</g>
<path fill="#2D669A" d="M88.596,69.702c0,8.255-6.691,14.946-14.945,14.946h-45.14c-8.253,0-14.944-6.691-14.944-14.946V25.874
	c0-8.256,6.691-14.947,14.944-14.947h45.14c8.254,0,14.945,6.691,14.945,14.947V69.702z"/>
<g>
	<defs>
		<path id="SVGID_1_" d="M88.596,69.271c0,8.255-6.691,14.946-14.945,14.946h-45.14c-8.253,0-14.944-6.691-14.944-14.946V25.443
			c0-8.255,6.691-14.946,14.944-14.946h45.14c8.254,0,14.945,6.691,14.945,14.946V69.271z"/>
	</defs>
	<clipPath id="SVGID_2_">
		<use xlink:href="#SVGID_1_"  overflow="visible"/>
	</clipPath>
	<g clip-path="url(#SVGID_2_)">
		<polygon fill="#FFFFFF" points="117.746,33.18 74.996,75.932 33.23,32.423 75.767,-10.329 		"/>
		<polygon fill="#2D669A" points="13.876,51.706 25.946,63.776 38.213,51.511 68.584,81.883 82.018,68.449 51.646,38.077 
			63.911,25.812 51.84,13.741 		"/>
		<g>
			
				<rect x="22.899" y="12.579" transform="matrix(0.7071 -0.7071 0.7071 0.7071 6.0756 44.2332)" fill="#2D669A" width="67.065" height="4.408"/>
			
				<rect x="27.482" y="17.161" transform="matrix(0.7071 -0.7071 0.7071 0.7071 4.1776 48.8169)" fill="#2D669A" width="67.066" height="4.41"/>
			
				<rect x="32.066" y="21.745" transform="matrix(0.7071 -0.7071 0.7071 0.7071 2.2787 53.401)" fill="#2D669A" width="67.066" height="4.41"/>
			
				<rect x="36.649" y="26.329" transform="matrix(0.7071 -0.7071 0.7071 0.7071 0.3796 57.9839)" fill="#2D669A" width="67.067" height="4.409"/>
			
				<rect x="41.234" y="30.915" transform="matrix(0.7071 -0.7071 0.7071 0.7071 -1.5196 62.5676)" fill="#2D669A" width="67.067" height="4.407"/>
			
				<rect x="45.816" y="35.496" transform="matrix(0.7071 -0.7071 0.7071 0.7071 -3.4171 67.1513)" fill="#2D669A" width="67.066" height="4.409"/>
			
				<rect x="50.402" y="40.081" transform="matrix(0.7071 -0.7071 0.7071 0.7071 -5.3159 71.7356)" fill="#2D669A" width="67.066" height="4.408"/>
			
				<rect x="54.985" y="44.664" transform="matrix(0.7071 -0.7071 0.7071 0.7071 -7.2141 76.3201)" fill="#2D669A" width="67.067" height="4.408"/>
			<polygon fill="#2D669A" points="118.373,29.73 70.949,77.154 67.832,73.605 115.256,26.183 			"/>
		</g>
		<g>
			<defs>
				<polygon id="SVGID_3_" points="13.876,51.706 25.946,63.776 38.213,51.511 70.512,83.811 83.945,70.162 51.646,37.862 
					64.127,25.597 52.056,13.525 				"/>
			</defs>
			<clipPath id="SVGID_4_">
				<use xlink:href="#SVGID_3_"  overflow="visible"/>
			</clipPath>
			<g clip-path="url(#SVGID_4_)">
				
					<rect x="1.608" y="19.755" transform="matrix(0.7071 -0.7071 0.7071 0.7071 -1.9449 39.2206)" fill="#FFFFFF" width="89.527" height="4.406"/>
				
					<rect x="6.189" y="24.335" transform="matrix(0.7071 -0.7071 0.7071 0.7071 -3.842 43.8014)" fill="#FFFFFF" width="89.528" height="4.406"/>
				<polygon fill="#FFFFFF" points="88.529,1.025 25.223,64.33 22.322,61.215 85.629,-2.09 				"/>
				
					<rect x="15.351" y="33.498" transform="matrix(0.7071 -0.7071 0.7071 0.7071 -7.6369 52.9647)" fill="#FFFFFF" width="89.526" height="4.406"/>
				
					<rect x="19.931" y="38.079" transform="matrix(0.7071 -0.7071 0.7071 0.7071 -9.5342 57.5452)" fill="#FFFFFF" width="89.528" height="4.405"/>
				
					<rect x="24.513" y="42.66" transform="matrix(0.7071 -0.7071 0.7071 0.7071 -11.4322 62.1258)" fill="#FFFFFF" width="89.526" height="4.405"/>
				
					<rect x="29.094" y="47.241" transform="matrix(0.7071 -0.7071 0.7071 0.7071 -13.3297 66.7068)" fill="#FFFFFF" width="89.527" height="4.404"/>
				
					<rect x="33.674" y="51.821" transform="matrix(0.7071 -0.7071 0.7071 0.7071 -15.2267 71.2873)" fill="#FFFFFF" width="89.528" height="4.406"/>
				
					<rect x="38.256" y="56.403" transform="matrix(0.7071 -0.7071 0.7071 0.7071 -17.1248 75.8685)" fill="#FFFFFF" width="89.528" height="4.405"/>
				
					<rect x="43.047" y="61.195" transform="matrix(0.7071 -0.7071 0.7071 0.7071 -19.1093 80.6595)" fill="#FFFFFF" width="89.528" height="4.405"/>
			</g>
		</g>
	</g>
</g>
</svg>
