<?xml version="1.0" encoding="utf-8"?>
<!-- Generator: Adobe Illustrator 14.0.0, SVG Export Plug-In . SVG Version: 6.00 Build 43363)  -->
<!DOCTYPE svg PUBLIC "-//W3C//DTD SVG 1.1//EN" "http://www.w3.org/Graphics/SVG/1.1/DTD/svg11.dtd">
<svg version="1.1" id="Layer_1" xmlns="http://www.w3.org/2000/svg" xmlns:xlink="http://www.w3.org/1999/xlink" x="0px" y="0px"
	 width="110px" height="115px" viewBox="0 0 110 115" enable-background="new 0 0 110 115" xml:space="preserve">
<line fill="none" stroke="#AEAEAE" stroke-width="0.3938" x1="23.971" y1="73.37" x2="86.582" y2="73.37"/>
<g>
	<path fill="#333333" d="M43.378,89.624h0.113l3.568,4.46l3.545-4.46h0.125v7.769h-0.791v-5.07c0-0.35,0.034-0.88,0.034-0.88
		s-0.294,0.496-0.542,0.802l-2.326,2.936h-0.136l-2.292-2.936c-0.248-0.306-0.554-0.802-0.554-0.802s0.046,0.53,0.046,0.88v5.07
		h-0.791V89.624z"/>
	<path fill="#333333" d="M52.833,89.624h0.113l3.568,4.46l3.545-4.46h0.125v7.769h-0.791v-5.07c0-0.35,0.034-0.88,0.034-0.88
		s-0.294,0.496-0.542,0.802L56.56,95.18h-0.136l-2.292-2.936c-0.248-0.306-0.554-0.802-0.554-0.802s0.046,0.53,0.046,0.88v5.07
		h-0.791V89.624z"/>
	<path fill="#333333" d="M64.839,89.636h0.136l3.252,7.757h-0.858l-0.519-1.287h-3.885l-0.508,1.287h-0.802L64.839,89.636z
		 M66.556,95.405l-1.355-3.41c-0.146-0.361-0.293-0.914-0.293-0.914s-0.158,0.553-0.305,0.914l-1.355,3.41H66.556z"/>
</g>
<g>
	<polyline fill="none" stroke="#2D669A" stroke-linecap="round" stroke-linejoin="round" points="55.079,23.702 46.745,4.181 
		43.754,9.665 52.278,30.263 	"/>
	
		<line fill="none" stroke="#2D669A" stroke-linecap="round" stroke-linejoin="round" x1="46.745" y1="4.181" x2="63.208" y2="4.181"/>
	<path fill="none" stroke="#2D669A" stroke-width="1.5" stroke-linecap="round" stroke-linejoin="round" d="M66.649,9.665h5.535
		c0,0,2.494,0.375,3.991,2.744c1.496,2.371,13.967,29.557,13.967,29.557l-8.606,4.988l-10.6-20.824l-1.621,7.605v4.49
		c0,0,0.375,2.246,1.122,5.236c0.75,2.994,1.25,7.857,1.374,9.48c0.124,1.619,0.124,4.113,0.124,4.113H38.467
		c0,0,0-2.494,0.124-4.113c0.125-1.623,0.624-6.486,1.372-9.48c0.748-2.99,1.123-5.236,1.123-5.236v-4.49l-1.621-7.605
		L28.864,46.954l-8.604-4.988c0,0,12.472-27.186,13.969-29.557c1.494-2.369,3.988-2.744,3.988-2.744h5.538"/>
	<path fill="none" stroke="#2D669A" stroke-linecap="round" stroke-linejoin="round" d="M53.682,39.927c0,0,1.87-0.33,2.864-1.578
		c1-1.246,1.125-2.742,1.125-2.742l2.618,1.996c0,0-0.498,2.494-1.872,3.74c-1.369,1.248-2.99,0.873-3.613,0.623
		C54.18,41.716,53.682,39.927,53.682,39.927z"/>
	<path fill="none" stroke="#2D669A" stroke-linecap="round" stroke-linejoin="round" d="M53.713,35.177c0,0-0.404,0.68-0.404,2.301
		s0.373,2.449,0.373,2.449s-1.746,0.295-4.116,2.914c-2.37,2.617-4.366,5.984-4.366,5.984l-4.237-1.496c0,0,2.491-4.24,5.361-6.734
		c2.869-2.494,5.237-4.863,7.783-5.539c1.457-0.387,3.564,0.551,3.564,0.551"/>
	<path fill="none" stroke="#2D669A" stroke-linecap="round" stroke-linejoin="round" d="M60.289,37.603c0,0,2.744,0.375,5.61,3.117
		c2.396,2.289,3.581,4.885,3.581,4.885l-2.243,3.117c0,0-2.332-3.762-3.828-5.01c-1.499-1.246-4.588-2.803-4.588-2.803"/>
	<path fill="none" stroke="#2D669A" stroke-linecap="round" stroke-linejoin="round" d="M69.423,33.243c0,0-1.776,1.115-4.144,1.99
		c-2.371,0.873-6.718,1.053-6.718,1.053"/>
	<path fill="none" stroke="#2D669A" stroke-linecap="round" stroke-linejoin="round" d="M69.315,38.226c0,0-0.67,0.373-2.04,0.748
		c-1.376,0.373-2.754,0.592-2.754,0.592"/>
	<path fill="none" stroke="#2D669A" stroke-linecap="round" stroke-linejoin="round" d="M41.086,34.358c0,0,2.12,1.373,4.238,1.748
		c2.121,0.373,4.306,0.348,4.306,0.348"/>
	<path fill="none" stroke="#2D669A" stroke-linecap="round" stroke-linejoin="round" d="M40.962,38.913c0,0,1.494,0.684,2.742,1.059
		c1.248,0.373,2.619,0.301,2.619,0.301"/>
	
		<line fill="none" stroke="#2D669A" stroke-linecap="round" stroke-linejoin="round" x1="53.681" y1="39.927" x2="46.729" y2="56.466"/>
	<path fill="none" stroke="#2D669A" stroke-linecap="round" stroke-linejoin="round" d="M48.789,38.431l14.621-34.25L66.4,9.665
		c0,0-7.066,16.811-10.664,25.373"/>
	
		<line fill="none" stroke="#2D669A" stroke-linecap="round" stroke-linejoin="round" x1="41.075" y1="56.501" x2="44.46" y2="48.565"/>
</g>
</svg>
