<?xml version="1.0" encoding="utf-8"?>
<!-- Generator: Adobe Illustrator 14.0.0, SVG Export Plug-In . SVG Version: 6.00 Build 43363)  -->
<!DOCTYPE svg PUBLIC "-//W3C//DTD SVG 1.1//EN" "http://www.w3.org/Graphics/SVG/1.1/DTD/svg11.dtd">
<svg version="1.1" id="Layer_1" xmlns="http://www.w3.org/2000/svg" xmlns:xlink="http://www.w3.org/1999/xlink" x="0px" y="0px"
	 width="110px" height="115px" viewBox="0 0 110 115" enable-background="new 0 0 110 115" xml:space="preserve">
<line fill="none" stroke="#AEAEAE" stroke-width="0.3938" x1="23.971" y1="73.37" x2="86.582" y2="73.37"/>
<g>
	<path fill="#333333" d="M12.433,89.624h0.113l3.568,4.46l3.545-4.46h0.125v7.769h-0.791v-5.07c0-0.35,0.034-0.88,0.034-0.88
		s-0.294,0.496-0.542,0.802l-2.326,2.936h-0.136l-2.292-2.936c-0.248-0.306-0.554-0.802-0.554-0.802s0.046,0.53,0.046,0.88v5.07
		h-0.791V89.624z"/>
	<path fill="#333333" d="M21.447,93.554c0-2.315,1.762-3.93,3.941-3.93c2.19,0,3.952,1.614,3.952,3.93
		c0,2.314-1.762,3.929-3.952,3.929C23.209,97.482,21.447,95.868,21.447,93.554z M28.493,93.554c0-1.829-1.31-3.195-3.104-3.195
		c-1.784,0-3.094,1.366-3.094,3.195s1.31,3.195,3.094,3.195C27.184,96.749,28.493,95.383,28.493,93.554z"/>
	<path fill="#333333" d="M32.233,90.438h-2.359v-0.723h5.532v0.723h-2.359v6.955h-0.813V90.438z"/>
	<path fill="#333333" d="M35.938,93.554c0-2.315,1.762-3.93,3.941-3.93c2.19,0,3.952,1.614,3.952,3.93
		c0,2.314-1.762,3.929-3.952,3.929C37.7,97.482,35.938,95.868,35.938,93.554z M42.984,93.554c0-1.829-1.31-3.195-3.104-3.195
		c-1.784,0-3.094,1.366-3.094,3.195s1.31,3.195,3.094,3.195C41.675,96.749,42.984,95.383,42.984,93.554z"/>
	<path fill="#333333" d="M50.475,97.393h-0.959l-1.479-2.101c-0.26,0.046-0.542,0.068-0.813,0.068h-0.914v2.032h-0.813v-7.678h1.728
		c2.101,0,3.185,1.174,3.185,2.834c0,1.151-0.542,2.055-1.604,2.483L50.475,97.393z M47.178,94.648c1.739,0,2.383-0.892,2.383-2.1
		c0-1.209-0.655-2.111-2.383-2.111h-0.869v4.211H47.178z"/>
	<path fill="#333333" d="M51.787,93.554c0-2.315,1.762-3.93,3.941-3.93c1.354,0,2.394,0.508,3.049,1.49l-0.621,0.452
		c-0.497-0.734-1.321-1.208-2.428-1.208c-1.796,0-3.094,1.366-3.094,3.195s1.298,3.195,3.094,3.195c1.117,0,1.976-0.485,2.529-1.287
		l0.632,0.44c-0.678,0.993-1.784,1.58-3.161,1.58C53.549,97.482,51.787,95.868,51.787,93.554z"/>
	<path fill="#333333" d="M62.529,94.987l-2.901-5.272h0.914l2.089,3.816c0.17,0.293,0.328,0.778,0.328,0.778
		s0.169-0.474,0.327-0.778l2.078-3.816h0.847l-2.846,5.238v2.439h-0.836V94.987z"/>
	<path fill="#333333" d="M66.609,93.554c0-2.315,1.762-3.93,3.941-3.93c1.354,0,2.394,0.508,3.049,1.49l-0.621,0.452
		c-0.497-0.734-1.321-1.208-2.428-1.208c-1.796,0-3.094,1.366-3.094,3.195s1.298,3.195,3.094,3.195c1.117,0,1.976-0.485,2.529-1.287
		l0.632,0.44c-0.678,0.993-1.784,1.58-3.161,1.58C68.371,97.482,66.609,95.868,66.609,93.554z"/>
	<path fill="#333333" d="M75.251,89.715h0.813v6.955h3.624v0.723h-4.438V89.715z"/>
	<path fill="#333333" d="M81.238,89.715h0.824v7.678h-0.824V89.715z"/>
	<path fill="#333333" d="M85.429,92.052c-0.215-0.26-0.531-0.712-0.531-0.712s0.068,0.543,0.068,0.87v5.183h-0.769v-7.757h0.136
		l4.584,5.42c0.215,0.259,0.531,0.711,0.531,0.711s-0.057-0.542-0.057-0.869v-5.183h0.757v7.757h-0.136L85.429,92.052z"/>
	<path fill="#333333" d="M91.811,93.554c0-2.315,1.717-3.93,3.952-3.93c1.106,0,2.044,0.316,2.677,0.993l-0.554,0.554
		c-0.497-0.52-1.174-0.812-2.123-0.812c-1.807,0-3.104,1.366-3.104,3.195s1.31,3.195,3.173,3.195c1.05,0,1.795-0.316,2.27-0.7
		v-1.581h-2.281v-0.723h3.049v2.677c-0.564,0.553-1.592,1.061-3.037,1.061C93.538,97.482,91.811,95.868,91.811,93.554z"/>
</g>
<g>
	<path fill="none" stroke="#2D669A" stroke-width="1.5" d="M36.193,43.761c0,3.68-2.982,6.66-6.661,6.66
		c-3.677,0-6.659-2.98-6.659-6.66c0-3.678,2.982-6.66,6.659-6.66c2.73,0,5.074,1.641,6.104,3.99"/>
	<path fill="none" stroke="#2D669A" stroke-width="1.5" d="M40.426,44.952c-0.596,5.533-5.276,9.836-10.964,9.836
		c-6.089,0-11.027-4.936-11.027-11.027c0-6.088,4.938-11.025,11.027-11.025c5.329,0,9.776,3.779,10.804,8.805"/>
	<line fill="none" stroke="#2D669A" stroke-width="1.5" x1="43.637" y1="34.282" x2="33.768" y2="40.771"/>
	<path fill="none" stroke="#2D669A" stroke-width="1.5" stroke-linecap="round" stroke-linejoin="round" d="M48.521,44.13
		l-2.963-2.33c0,0,0-3.385-0.634-5.715c-0.636-2.328-7.623-6.352-9.738-8.043c-2.118-1.697-11.646-5.93-11.646-5.93
		s7.411-2.752,8.468-2.539c1.06,0.211,2.117,4.021,2.117,4.021s5.748,1.238,8.257,1.695c5.505,1,5.505,1,5.505,1
		s0-3.543,2.751-4.391c2.752-0.844,6.139-0.844,8.047-0.633c1.904,0.211,7.961,2.035,7.961,2.035
		c1.691-0.848,2.346-1.67,2.555-3.363c0.215-1.695-2.539-4.656-1.693-5.291c0.848-0.635,7.199,1.904,9.527,3.385
		c2.33,1.482,4.088,7.469,3.877,9.16c-0.213,1.695-9.527,6.775-10.586,8.682c-1.057,1.904-3.176,7.197-3.176,9.738
		c0,2.539,0,5.291,0,5.291l-26.46-1.904C40.689,48.999,44.924,44.976,48.521,44.13"/>
	<path fill="none" stroke="#2D669A" stroke-width="1.5" d="M73.267,35.763c0,0,3.6-2.965,6.773-3.174
		c3.176-0.213,6.352,1.057,6.352,1.057s-5.08,2.963-5.502,4.445c-0.424,1.482,0,3.6-0.85,4.871
		c-0.846,1.268-3.598-1.271-4.234-3.389C75.171,37.456,73.267,35.763,73.267,35.763z"/>
	
		<line fill="none" stroke="#2D669A" stroke-width="1.5" stroke-linecap="round" stroke-linejoin="round" x1="75.083" y1="32.042" x2="80.712" y2="44.55"/>
	<path fill="none" stroke="#2D669A" stroke-width="1.5" d="M85.819,33.989c3.518,1.84,5.916,5.527,5.916,9.771
		c0,6.092-4.936,11.027-11.025,11.027s-11.025-4.936-11.025-11.027c0-3.045,1.232-5.801,3.23-7.797"/>
	<path fill="none" stroke="#2D669A" stroke-width="1.5" d="M81.528,37.151c3.293,0.402,5.842,3.209,5.842,6.609
		c0,3.68-2.982,6.66-6.66,6.66s-6.66-2.98-6.66-6.66c0-1.65,0.604-3.162,1.598-4.326"/>
	<polyline fill="none" stroke="#2D669A" stroke-width="1.5" points="47.262,43.401 23.428,38.669 25.181,42.7 45.334,45.681 	"/>
</g>
</svg>
