<?xml version="1.0" encoding="utf-8"?>
<!-- Generator: Adobe Illustrator 14.0.0, SVG Export Plug-In . SVG Version: 6.00 Build 43363)  -->
<!DOCTYPE svg PUBLIC "-//W3C//DTD SVG 1.1//EN" "http://www.w3.org/Graphics/SVG/1.1/DTD/svg11.dtd">
<svg version="1.1" id="Layer_1" xmlns="http://www.w3.org/2000/svg" xmlns:xlink="http://www.w3.org/1999/xlink" x="0px" y="0px"
	 width="110px" height="115px" viewBox="0 0 110 115" enable-background="new 0 0 110 115" xml:space="preserve">
<line fill="none" stroke="#AEAEAE" stroke-width="0.3938" x1="23.971" y1="73.37" x2="86.582" y2="73.37"/>
<g>
	<path fill="#333333" d="M36.641,89.624h0.113l3.568,4.46l3.545-4.46h0.124v7.769h-0.79v-5.07c0-0.35,0.034-0.88,0.034-0.88
		s-0.294,0.496-0.542,0.802l-2.326,2.936h-0.136l-2.292-2.936c-0.248-0.306-0.554-0.802-0.554-0.802s0.046,0.53,0.046,0.88v5.07
		h-0.791V89.624z"/>
	<path fill="#333333" d="M45.655,93.554c0-2.315,1.762-3.93,3.941-3.93c2.19,0,3.952,1.614,3.952,3.93
		c0,2.314-1.762,3.929-3.952,3.929C47.417,97.482,45.655,95.868,45.655,93.554z M52.701,93.554c0-1.829-1.31-3.195-3.104-3.195
		c-1.784,0-3.094,1.366-3.094,3.195s1.31,3.195,3.094,3.195C51.392,96.749,52.701,95.383,52.701,93.554z"/>
	<path fill="#333333" d="M56.442,90.438h-2.359v-0.723h5.532v0.723h-2.359v6.955h-0.813V90.438z"/>
	<path fill="#333333" d="M60.147,93.554c0-2.315,1.762-3.93,3.941-3.93c2.19,0,3.952,1.614,3.952,3.93
		c0,2.314-1.762,3.929-3.952,3.929C61.909,97.482,60.147,95.868,60.147,93.554z M67.193,93.554c0-1.829-1.31-3.195-3.104-3.195
		c-1.784,0-3.094,1.366-3.094,3.195s1.31,3.195,3.094,3.195C65.884,96.749,67.193,95.383,67.193,93.554z"/>
	<path fill="#333333" d="M74.684,97.393h-0.959l-1.479-2.101c-0.26,0.046-0.542,0.068-0.813,0.068h-0.914v2.032h-0.813v-7.678h1.728
		c2.101,0,3.185,1.174,3.185,2.834c0,1.151-0.542,2.055-1.604,2.483L74.684,97.393z M71.387,94.648c1.739,0,2.383-0.892,2.383-2.1
		c0-1.209-0.655-2.111-2.383-2.111h-0.869v4.211H71.387z"/>
	<path fill="#333333" d="M40.936,110.948h-0.959l-1.479-2.101c-0.26,0.046-0.542,0.068-0.813,0.068H36.77v2.032h-0.813v-7.679h1.728
		c2.101,0,3.185,1.175,3.185,2.835c0,1.151-0.542,2.055-1.604,2.483L40.936,110.948z M37.639,108.204c1.739,0,2.383-0.892,2.383-2.1
		s-0.655-2.112-2.383-2.112H36.77v4.212H37.639z"/>
	<path fill="#333333" d="M45.127,103.191h0.136l3.252,7.757h-0.858l-0.519-1.287h-3.885l-0.508,1.287h-0.802L45.127,103.191z
		 M46.844,108.961l-1.355-3.41c-0.146-0.361-0.293-0.914-0.293-0.914s-0.158,0.553-0.305,0.914l-1.355,3.41H46.844z"/>
	<path fill="#333333" d="M49.038,107.109c0-2.315,1.762-3.93,3.941-3.93c1.354,0,2.394,0.508,3.049,1.49l-0.621,0.452
		c-0.497-0.734-1.321-1.208-2.428-1.208c-1.796,0-3.094,1.366-3.094,3.195s1.298,3.195,3.094,3.195c1.117,0,1.976-0.485,2.529-1.287
		l0.632,0.44c-0.678,0.993-1.784,1.581-3.161,1.581C50.8,111.039,49.038,109.424,49.038,107.109z"/>
	<path fill="#333333" d="M57.714,103.27h0.824v7.679h-0.824V103.27z"/>
	<path fill="#333333" d="M61.904,105.607c-0.215-0.26-0.531-0.711-0.531-0.711s0.068,0.541,0.068,0.869v5.183h-0.769v-7.757h0.136
		l4.584,5.42c0.215,0.26,0.531,0.711,0.531,0.711s-0.057-0.542-0.057-0.869v-5.184h0.757v7.758h-0.136L61.904,105.607z"/>
	<path fill="#333333" d="M68.286,107.109c0-2.315,1.717-3.93,3.952-3.93c1.106,0,2.044,0.316,2.677,0.994l-0.554,0.553
		c-0.497-0.52-1.175-0.812-2.123-0.812c-1.807,0-3.104,1.366-3.104,3.195s1.31,3.195,3.173,3.195c1.05,0,1.795-0.316,2.27-0.7
		v-1.581h-2.281v-0.723h3.049v2.677c-0.564,0.553-1.592,1.062-3.037,1.062C70.014,111.039,68.286,109.424,68.286,107.109z"/>
</g>
<g>
	<circle fill="none" stroke="#AEAEAE" stroke-width="1.5" cx="16.751" cy="50.355" r="7.147"/>
	<path fill="none" stroke="#AEAEAE" stroke-width="1.5" d="M20.468,50.355c0,2.055-1.664,3.719-3.717,3.719
		c-2.054,0-3.718-1.664-3.718-3.719c0-2.051,1.664-3.715,3.718-3.715C18.804,46.641,20.468,48.305,20.468,50.355z"/>
	<circle fill="none" stroke="#AEAEAE" stroke-width="1.5" cx="85.986" cy="50.355" r="7.146"/>
	<path fill="none" stroke="#AEAEAE" stroke-width="1.5" d="M89.703,50.355c0,2.055-1.664,3.719-3.717,3.719
		c-2.051,0-3.717-1.664-3.717-3.719c0-2.051,1.666-3.715,3.717-3.715C88.039,46.641,89.703,48.305,89.703,50.355z"/>
	<path fill="none" stroke="#AEAEAE" stroke-width="1.5" stroke-linecap="round" stroke-linejoin="round" d="M9.768,48.836H6.531
		L6.39,42.924l5.216-4.5h8.577c0,0,1.214,0.285,1.355,1.285c0.145,0.998,0,3.215,0,3.215s2.932-0.428,3.789,0.859
		c0.857,1.285,0,2.498,1.357,4.002c1.358,1.498,3.43,1.857,5.146,2.857c1.717,1,2.145,2.215,2.145,2.715
		c0,0.502,0.214,1.715,0.214,1.715S29.33,55.43,27.256,53.5c-2.071-1.926-2.071-3.357-2.501-4.643
		c-0.429-1.287-2.603-3.176-2.603-3.176"/>
	<path fill="none" stroke="#AEAEAE" stroke-width="1.5" stroke-linecap="round" stroke-linejoin="round" d="M23.898,42.424
		l17.081-6.219h6.217v4.906c0,0,2.074,0.143,3.505,0.787c1.429,0.643,2.392,1.721,2.392,1.721h3.751l1.928-1.65h-1.285v-1.572
		c0,0,3.859-0.357,3.787,0.715c-0.07,1.072-0.529,1.357-0.529,1.357l-1.113,1.15H83.35"/>
	<path fill="none" stroke="#AEAEAE" stroke-width="1.5" stroke-linecap="round" stroke-linejoin="round" d="M90.381,44.725
		c0,0,5.139,1.326,7.199,2.201c3.357,1.43,5.359,3.217,5.359,3.217v3.215H92.461"/>
	<path fill="none" stroke="#AEAEAE" stroke-width="1.5" stroke-linecap="round" stroke-linejoin="round" d="M79.912,46.592
		c0,0-2.199,2.121-2.631,4.123c-0.428,1.998-0.5,3.859-0.5,3.859H60.059v-1.43c0,0-8.791,1.426-15.722,1.285
		c-6.935-0.143-10.323-0.543-10.323-0.543"/>
	<path fill="none" stroke="#AEAEAE" stroke-width="1.5" stroke-linecap="round" stroke-linejoin="round" d="M60.414,52.285
		c0.43,0,16.617,0,16.617,0"/>
</g>
</svg>
