<?xml version="1.0" encoding="utf-8"?>
<!-- Generator: Adobe Illustrator 14.0.0, SVG Export Plug-In . SVG Version: 6.00 Build 43363)  -->
<!DOCTYPE svg PUBLIC "-//W3C//DTD SVG 1.1//EN" "http://www.w3.org/Graphics/SVG/1.1/DTD/svg11.dtd">
<svg version="1.1" id="Layer_1" xmlns="http://www.w3.org/2000/svg" xmlns:xlink="http://www.w3.org/1999/xlink" x="0px" y="0px"
	 width="110px" height="115px" viewBox="0 0 110 115" enable-background="new 0 0 110 115" xml:space="preserve">
<line fill="none" stroke="#AEAEAE" stroke-width="0.3938" x1="23.971" y1="73.37" x2="86.582" y2="73.37"/>
<g>
	<path fill="#333333" d="M28.661,93.554c0-2.315,1.762-3.93,3.941-3.93c2.19,0,3.952,1.614,3.952,3.93
		c0,2.314-1.762,3.929-3.952,3.929C30.423,97.482,28.661,95.868,28.661,93.554z M35.707,93.554c0-1.829-1.31-3.195-3.104-3.195
		c-1.784,0-3.094,1.366-3.094,3.195s1.31,3.195,3.094,3.195C34.397,96.749,35.707,95.383,35.707,93.554z"/>
	<path fill="#333333" d="M38.218,89.715h0.813v6.955h3.624v0.723h-4.438V89.715z"/>
	<path fill="#333333" d="M45.423,94.987l-2.901-5.272h0.914l2.089,3.816c0.17,0.293,0.328,0.778,0.328,0.778
		s0.169-0.474,0.327-0.778l2.078-3.816h0.847l-2.846,5.238v2.439h-0.836V94.987z"/>
	<path fill="#333333" d="M50.563,89.624h0.113l3.568,4.46l3.545-4.46h0.125v7.769h-0.791v-5.07c0-0.35,0.034-0.88,0.034-0.88
		s-0.294,0.496-0.542,0.802L54.29,95.18h-0.136l-2.292-2.936c-0.248-0.306-0.554-0.802-0.554-0.802s0.046,0.53,0.046,0.88v5.07
		h-0.791V89.624z"/>
	<path fill="#333333" d="M60.019,89.715h1.739c2.101,0,3.173,1.162,3.173,2.891c0,1.693-1.072,2.879-3.173,2.879h-0.926v1.908
		h-0.813V89.715z M61.713,94.773c1.728,0,2.371-0.904,2.371-2.168c0-1.266-0.644-2.168-2.371-2.168h-0.881v4.336H61.713z"/>
	<path fill="#333333" d="M66.649,89.715h0.824v7.678h-0.824V89.715z"/>
	<path fill="#333333" d="M69.168,93.554c0-2.315,1.762-3.93,3.941-3.93c1.354,0,2.394,0.508,3.049,1.49l-0.621,0.452
		c-0.497-0.734-1.321-1.208-2.428-1.208c-1.796,0-3.094,1.366-3.094,3.195s1.298,3.195,3.094,3.195c1.117,0,1.976-0.485,2.529-1.287
		l0.632,0.44c-0.678,0.993-1.784,1.58-3.161,1.58C70.93,97.482,69.168,95.868,69.168,93.554z"/>
	<path fill="#333333" d="M77.255,95.925l0.678-0.361c0.361,0.644,0.893,1.196,1.977,1.196c0.892,0,1.592-0.496,1.592-1.31
		c0-0.779-0.485-1.174-1.445-1.604l-0.61-0.282c-1.095-0.496-1.693-1.027-1.693-2.1c0-1.106,0.869-1.841,2.021-1.841
		c1.027,0,1.671,0.475,2.077,1.151l-0.654,0.407c-0.294-0.475-0.7-0.836-1.423-0.836c-0.757,0-1.22,0.44-1.22,1.096
		c0,0.677,0.361,0.981,1.22,1.377l0.609,0.282c1.276,0.564,1.931,1.197,1.931,2.349c0,1.265-1.005,2.032-2.382,2.032
		C78.464,97.482,77.662,96.737,77.255,95.925z"/>
</g>
<g>
	<g>
		<path fill="none" stroke="#AEAEAE" stroke-width="1.5" stroke-linecap="round" stroke-linejoin="round" d="M34.877,48.797
			c0,0,2.646,9.979,20.346,9.979c17.701,0,20.347-9.979,20.347-9.979H34.877z"/>
	</g>
	<path fill="none" stroke="#AEAEAE" stroke-width="1.5" stroke-linecap="round" stroke-linejoin="round" d="M60.588,45.318
		c0,0,9.082-4.902,8.117-12.627c-0.451-3.607-4.512-6.314-5.863-10.373c-1.354-4.059-0.9-7.664-2.254-10.822
		c-1.352-3.158-5.863-4.51-5.863-4.51s1.351,4.961,0.901,9.469c-0.451,4.512-4.509,6.766-4.509,6.766s0.452-1.803-1.805-4.961
		c-2.254-3.156-4.961-4.057-4.961-4.057s1.353,4.959,0.45,8.566c-0.901,3.607-4.96,7.217-3.155,14.432
		c1.803,7.213,8.117,7.666,8.117,7.666s-0.451-2.705,0.45-7.215c0.903-4.51,3.607-5.412,3.607-5.412s0.903,1.805,1.354,4.057
		c0.451,2.258,0.451,2.258,0.451,2.258l4.059-4.059c0,0,1.014,2.234,1.352,4.508C61.559,42.514,60.588,45.318,60.588,45.318z"/>
</g>
</svg>
