<?xml version="1.0" encoding="utf-8"?>
<!-- Generator: Adobe Illustrator 14.0.0, SVG Export Plug-In . SVG Version: 6.00 Build 43363)  -->
<!DOCTYPE svg PUBLIC "-//W3C//DTD SVG 1.1//EN" "http://www.w3.org/Graphics/SVG/1.1/DTD/svg11.dtd">
<svg version="1.1" id="Layer_1" xmlns="http://www.w3.org/2000/svg" xmlns:xlink="http://www.w3.org/1999/xlink" x="0px" y="0px"
	 width="110px" height="115px" viewBox="0 0 110 115" enable-background="new 0 0 110 115" xml:space="preserve">
<line fill="none" stroke="#AEAEAE" stroke-width="0.3938" x1="23.971" y1="73.37" x2="86.582" y2="73.37"/>
<g>
	<path fill="#333333" d="M37.951,93.554c0-2.315,1.762-3.93,3.941-3.93c2.19,0,3.952,1.614,3.952,3.93
		c0,2.314-1.762,3.929-3.952,3.929C39.713,97.482,37.951,95.868,37.951,93.554z M44.997,93.554c0-1.829-1.31-3.195-3.104-3.195
		c-1.784,0-3.094,1.366-3.094,3.195s1.31,3.195,3.094,3.195C43.688,96.749,44.997,95.383,44.997,93.554z"/>
	<path fill="#333333" d="M47.508,89.715h1.739c2.101,0,3.173,1.162,3.173,2.891c0,1.693-1.072,2.879-3.173,2.879h-0.926v1.908
		h-0.813V89.715z M49.202,94.773c1.728,0,2.371-0.904,2.371-2.168c0-1.266-0.644-2.168-2.371-2.168h-0.881v4.336H49.202z"/>
	<path fill="#333333" d="M54.104,89.715h4.675v0.723h-3.861v3.602h3.443v0.711h-3.443v1.92h4.02v0.723h-4.833V89.715z"/>
	<path fill="#333333" d="M65.636,97.393h-0.959l-1.479-2.101c-0.26,0.046-0.542,0.068-0.813,0.068H61.47v2.032h-0.813v-7.678h1.728
		c2.101,0,3.185,1.174,3.185,2.834c0,1.151-0.542,2.055-1.604,2.483L65.636,97.393z M62.339,94.648c1.739,0,2.383-0.892,2.383-2.1
		c0-1.209-0.655-2.111-2.383-2.111H61.47v4.211H62.339z"/>
	<path fill="#333333" d="M69.827,89.636h0.136l3.252,7.757h-0.858l-0.519-1.287h-3.885l-0.508,1.287h-0.802L69.827,89.636z
		 M71.544,95.405l-1.355-3.41c-0.146-0.361-0.293-0.914-0.293-0.914s-0.158,0.553-0.305,0.914l-1.355,3.41H71.544z"/>
</g>
<g>
	<g>
		<path fill="none" stroke="#AEAEAE" stroke-width="1.5" stroke-linecap="round" stroke-linejoin="round" d="M51.844,34.621
			c-1.862,0.818-4.243,2.464-6.396,5.782c-4.354,6.707-4.002,16.358-4.002,16.358s3.758,1.387,14.498,1.387
			c10.741,0,12.819-1.387,12.819-1.387s0.354-9.651-4.002-16.358c-2.154-3.318-4.537-4.965-6.398-5.783"/>
		<path fill="none" stroke="#AEAEAE" stroke-width="1.5" d="M60.04,33.048c0,0.682-0.551,1.235-1.234,1.235h-6.709
			c-0.682,0-1.237-0.554-1.237-1.235l0,0c0-0.684,0.556-1.236,1.237-1.236h6.709C59.489,31.812,60.04,32.364,60.04,33.048
			L60.04,33.048z"/>
		<polyline fill="none" stroke="#AEAEAE" stroke-width="1.5" stroke-linecap="round" stroke-linejoin="round" points="
			53.029,31.812 55.383,21.69 57.974,31.812 		"/>
		<path fill="none" stroke="#AEAEAE" stroke-width="1.5" stroke-linecap="round" stroke-linejoin="round" d="M44.391,40.637
			c0,0-8.149-3.004-11.299-7.179c-4.708-6.237-3.176-16.592-3.176-16.592s-6.357,8.826-2.475,21.417
			c3.887,12.593,14.24,13.862,14.24,13.862"/>
		<path fill="none" stroke="#AEAEAE" stroke-width="1.5" stroke-linecap="round" stroke-linejoin="round" d="M66.151,40.637
			c0,0,8.148-3.004,11.299-7.179c4.707-6.237,3.176-16.592,3.176-16.592s6.357,8.826,2.471,21.417
			c-3.883,12.593-14.238,13.862-14.238,13.862"/>
	</g>
</g>
</svg>
