<?xml version="1.0" encoding="utf-8"?>
<!-- Generator: Adobe Illustrator 14.0.0, SVG Export Plug-In . SVG Version: 6.00 Build 43363)  -->
<!DOCTYPE svg PUBLIC "-//W3C//DTD SVG 1.1//EN" "http://www.w3.org/Graphics/SVG/1.1/DTD/svg11.dtd">
<svg version="1.1" id="Layer_1" xmlns="http://www.w3.org/2000/svg" xmlns:xlink="http://www.w3.org/1999/xlink" x="0px" y="0px"
	 width="110px" height="115px" viewBox="0 0 110 115" enable-background="new 0 0 110 115" xml:space="preserve">
<line fill="none" stroke="#AEAEAE" stroke-width="0.3938" x1="23.971" y1="73.37" x2="86.582" y2="73.37"/>
<g>
	<path fill="#333333" d="M43.269,97.393H42.31l-1.479-2.101c-0.26,0.046-0.542,0.068-0.813,0.068h-0.914v2.032h-0.813v-7.678h1.728
		c2.101,0,3.185,1.174,3.185,2.834c0,1.151-0.542,2.055-1.604,2.483L43.269,97.393z M39.972,94.648c1.739,0,2.383-0.892,2.383-2.1
		c0-1.209-0.655-2.111-2.383-2.111h-0.869v4.211H39.972z"/>
	<path fill="#333333" d="M44.899,94.773v-5.059h0.812v5.002c0,1.366,0.746,2.043,1.942,2.043c1.186,0,1.942-0.677,1.942-2.043
		v-5.002h0.812v5.059c0,1.795-1.196,2.709-2.755,2.709C46.085,97.482,44.899,96.568,44.899,94.773z"/>
	<path fill="#333333" d="M52.004,93.554c0-2.315,1.717-3.93,3.952-3.93c1.106,0,2.044,0.316,2.677,0.993l-0.554,0.554
		c-0.497-0.52-1.174-0.812-2.123-0.812c-1.807,0-3.104,1.366-3.104,3.195s1.31,3.195,3.173,3.195c1.05,0,1.795-0.316,2.27-0.7
		v-1.581h-2.281v-0.723h3.049v2.677c-0.564,0.553-1.592,1.061-3.037,1.061C53.731,97.482,52.004,95.868,52.004,93.554z"/>
	<path fill="#333333" d="M60.837,89.715h2.608c1.435,0,2.111,0.847,2.111,1.885c0,0.757-0.338,1.311-0.993,1.524
		c0.993,0.237,1.581,0.994,1.581,2.011c0,1.275-0.791,2.258-2.428,2.258h-2.88V89.715z M63.502,92.854
		c0.892,0,1.242-0.508,1.242-1.208s-0.373-1.208-1.355-1.208H61.65v2.416H63.502z M63.66,96.67c1.174,0,1.66-0.666,1.66-1.559
		c0-0.903-0.531-1.558-1.705-1.558H61.65v3.116H63.66z"/>
	<path fill="#333333" d="M69.646,94.987l-2.901-5.272h0.914l2.089,3.816c0.17,0.293,0.328,0.778,0.328,0.778
		s0.169-0.474,0.327-0.778l2.078-3.816h0.847l-2.846,5.238v2.439h-0.836V94.987z"/>
</g>
<g>
	<line fill="none" stroke="#AEAEAE" stroke-width="1.5" x1="76.718" y1="16.894" x2="38.063" y2="55.319"/>
	<path fill="none" stroke="#AEAEAE" stroke-width="1.5" d="M70.231,49.026c-8.039,8.008-25.075,13.428-32.168,6.293
		c-7.094-7.133-1.6-24.014,6.484-32.129c8.36-8.393,25.077-13.43,32.17-6.297C83.808,24.028,78.763,40.524,70.231,49.026z"/>
</g>
</svg>
