<?xml version="1.0" encoding="utf-8"?>
<!-- Generator: Adobe Illustrator 14.0.0, SVG Export Plug-In . SVG Version: 6.00 Build 43363)  -->
<!DOCTYPE svg PUBLIC "-//W3C//DTD SVG 1.1//EN" "http://www.w3.org/Graphics/SVG/1.1/DTD/svg11.dtd">
<svg version="1.1" id="Layer_1" xmlns="http://www.w3.org/2000/svg" xmlns:xlink="http://www.w3.org/1999/xlink" x="0px" y="0px"
	 width="110px" height="115px" viewBox="0 0 110 115" enable-background="new 0 0 110 115" xml:space="preserve">
<line fill="none" stroke="#AEAEAE" stroke-width="0.3938" x1="23.971" y1="73.37" x2="86.582" y2="73.37"/>
<g>
	<path fill="#333333" d="M33.991,95.925l0.678-0.361c0.361,0.644,0.893,1.196,1.977,1.196c0.892,0,1.592-0.496,1.592-1.31
		c0-0.779-0.485-1.174-1.445-1.604l-0.61-0.282c-1.095-0.496-1.693-1.027-1.693-2.1c0-1.106,0.869-1.841,2.021-1.841
		c1.027,0,1.671,0.475,2.077,1.151l-0.654,0.407c-0.294-0.475-0.7-0.836-1.423-0.836c-0.757,0-1.22,0.44-1.22,1.096
		c0,0.677,0.361,0.981,1.22,1.377l0.609,0.282c1.276,0.564,1.931,1.197,1.931,2.349c0,1.265-1.005,2.032-2.382,2.032
		C35.2,97.482,34.398,96.737,33.991,95.925z"/>
	<path fill="#333333" d="M40.712,89.715h1.739c2.101,0,3.173,1.162,3.173,2.891c0,1.693-1.072,2.879-3.173,2.879h-0.926v1.908
		h-0.813V89.715z M42.406,94.773c1.728,0,2.371-0.904,2.371-2.168c0-1.266-0.644-2.168-2.371-2.168h-0.881v4.336H42.406z"/>
	<path fill="#333333" d="M47.309,89.715h4.675v0.723h-3.861v3.602h3.443v0.711h-3.443v1.92h4.02v0.723h-4.833V89.715z"/>
	<path fill="#333333" d="M53.365,93.554c0-2.315,1.762-3.93,3.941-3.93c1.354,0,2.394,0.508,3.049,1.49l-0.621,0.452
		c-0.497-0.734-1.321-1.208-2.428-1.208c-1.796,0-3.094,1.366-3.094,3.195s1.298,3.195,3.094,3.195c1.117,0,1.976-0.485,2.529-1.287
		l0.632,0.44c-0.678,0.993-1.784,1.58-3.161,1.58C55.127,97.482,53.365,95.868,53.365,93.554z"/>
	<path fill="#333333" d="M62.04,89.715h0.824v7.678H62.04V89.715z"/>
	<path fill="#333333" d="M67.552,89.636h0.136l3.252,7.757h-0.858l-0.519-1.287h-3.885l-0.508,1.287h-0.802L67.552,89.636z
		 M69.269,95.405l-1.355-3.41c-0.146-0.361-0.293-0.914-0.293-0.914s-0.158,0.553-0.305,0.914l-1.355,3.41H69.269z"/>
	<path fill="#333333" d="M72.41,89.715h0.813v6.955h3.624v0.723H72.41V89.715z"/>
	<path fill="#333333" d="M36.143,103.27h4.675v0.723h-3.861v3.603h3.443v0.711h-3.443v1.92h4.02v0.723h-4.833V103.27z"/>
	<path fill="#333333" d="M42.007,103.27h0.881l2.111,5.206c0.158,0.384,0.327,1.039,0.327,1.039s0.17-0.655,0.327-1.039l2.101-5.206
		h0.824l-3.195,7.758h-0.136L42.007,103.27z"/>
	<path fill="#333333" d="M50.049,103.27h4.675v0.723h-3.861v3.603h3.443v0.711h-3.443v1.92h4.02v0.723h-4.833V103.27z"/>
	<path fill="#333333" d="M57.832,105.607c-0.215-0.26-0.531-0.711-0.531-0.711s0.068,0.541,0.068,0.869v5.183h-0.769v-7.757h0.136
		l4.584,5.42c0.215,0.26,0.531,0.711,0.531,0.711s-0.057-0.542-0.057-0.869v-5.184h0.757v7.758h-0.136L57.832,105.607z"/>
	<path fill="#333333" d="M66.337,103.992h-2.359v-0.723h5.532v0.723H67.15v6.956h-0.813V103.992z"/>
	<path fill="#333333" d="M70.213,109.48l0.678-0.361c0.361,0.644,0.892,1.197,1.976,1.197c0.893,0,1.593-0.497,1.593-1.311
		c0-0.779-0.485-1.174-1.445-1.604l-0.61-0.282c-1.095-0.496-1.693-1.027-1.693-2.1c0-1.106,0.869-1.841,2.021-1.841
		c1.027,0,1.671,0.475,2.077,1.151l-0.654,0.407c-0.294-0.475-0.7-0.836-1.423-0.836c-0.757,0-1.22,0.44-1.22,1.096
		c0,0.677,0.361,0.982,1.22,1.377l0.609,0.282c1.276,0.564,1.931,1.197,1.931,2.349c0,1.265-1.005,2.033-2.382,2.033
		C71.421,111.039,70.62,110.293,70.213,109.48z"/>
</g>
<polygon fill="none" stroke="#2D669A" stroke-width="1.5" points="55.456,4.855 62.212,25.65 84.079,25.65 66.388,38.502 
	73.146,59.302 55.456,46.445 37.767,59.302 44.523,38.502 26.833,25.65 48.7,25.65 "/>
</svg>
