<?xml version="1.0" encoding="utf-8"?>
<!-- Generator: Adobe Illustrator 14.0.0, SVG Export Plug-In . SVG Version: 6.00 Build 43363)  -->
<!DOCTYPE svg PUBLIC "-//W3C//DTD SVG 1.1//EN" "http://www.w3.org/Graphics/SVG/1.1/DTD/svg11.dtd">
<svg version="1.1" id="Layer_1" xmlns="http://www.w3.org/2000/svg" xmlns:xlink="http://www.w3.org/1999/xlink" x="0px" y="0px"
	 width="110px" height="115px" viewBox="0 0 110 115" enable-background="new 0 0 110 115" xml:space="preserve">
<line fill="none" stroke="#AEAEAE" stroke-width="0.3938" x1="23.971" y1="73.37" x2="86.582" y2="73.37"/>
<g>
	<path fill="#333333" d="M38.538,95.925l0.678-0.361c0.361,0.644,0.893,1.196,1.977,1.196c0.892,0,1.592-0.496,1.592-1.31
		c0-0.779-0.485-1.174-1.445-1.604l-0.61-0.282c-1.095-0.496-1.693-1.027-1.693-2.1c0-1.106,0.869-1.841,2.021-1.841
		c1.027,0,1.671,0.475,2.077,1.151l-0.654,0.407c-0.294-0.475-0.7-0.836-1.423-0.836c-0.757,0-1.22,0.44-1.22,1.096
		c0,0.677,0.361,0.981,1.22,1.377l0.609,0.282c1.276,0.564,1.931,1.197,1.931,2.349c0,1.265-1.005,2.032-2.382,2.032
		C39.747,97.482,38.945,96.737,38.538,95.925z"/>
	<path fill="#333333" d="M45.259,89.715h1.739c2.101,0,3.173,1.162,3.173,2.891c0,1.693-1.072,2.879-3.173,2.879h-0.926v1.908
		h-0.813V89.715z M46.953,94.773c1.728,0,2.371-0.904,2.371-2.168c0-1.266-0.644-2.168-2.371-2.168h-0.881v4.336H46.953z"/>
	<path fill="#333333" d="M51.415,93.554c0-2.315,1.762-3.93,3.941-3.93c2.19,0,3.952,1.614,3.952,3.93
		c0,2.314-1.762,3.929-3.952,3.929C53.177,97.482,51.415,95.868,51.415,93.554z M58.461,93.554c0-1.829-1.31-3.195-3.104-3.195
		c-1.784,0-3.094,1.366-3.094,3.195s1.31,3.195,3.094,3.195C57.151,96.749,58.461,95.383,58.461,93.554z"/>
	<path fill="#333333" d="M65.951,97.393h-0.959l-1.479-2.101c-0.26,0.046-0.542,0.068-0.813,0.068h-0.914v2.032h-0.813v-7.678h1.728
		c2.101,0,3.185,1.174,3.185,2.834c0,1.151-0.542,2.055-1.604,2.483L65.951,97.393z M62.654,94.648c1.739,0,2.383-0.892,2.383-2.1
		c0-1.209-0.655-2.111-2.383-2.111h-0.869v4.211H62.654z"/>
	<path fill="#333333" d="M69.219,90.438h-2.359v-0.723h5.532v0.723h-2.359v6.955h-0.813V90.438z"/>
</g>
<g>
	<circle fill="none" stroke="#2D669A" stroke-width="1.5" cx="67.926" cy="21.953" r="6.922"/>
	<g>
		<g>
			<g>
				<path fill="none" stroke="#2D669A" stroke-width="1.5" d="M74.004,48.426c0,7.041-5.709,12.751-12.746,12.751
					c-7.041,0-12.75-5.71-12.75-12.751c0-7.039,5.709-12.746,12.75-12.746C68.295,35.68,74.004,41.387,74.004,48.426z"/>
				<polygon fill="none" stroke="#2D669A" stroke-width="1.5" points="58.119,52.793 56.18,46.83 61.258,43.139 66.332,46.83
					64.393,52.793 				"/>
				<polyline fill="none" stroke="#2D669A" stroke-width="1.5" points="61.258,43.139 61.258,38.961 57.506,36.242 				"/>
				<line fill="none" stroke="#2D669A" stroke-width="1.5" x1="61.258" y1="38.961" x2="65.213" y2="36.307"/>
				<polyline fill="none" stroke="#2D669A" stroke-width="1.5" points="66.225,46.852 70.141,45.395 71.383,40.93 				"/>
				<line fill="none" stroke="#2D669A" stroke-width="1.5" x1="70.141" y1="45.395" x2="74.006" y2="48.18"/>
				<polyline fill="none" stroke="#2D669A" stroke-width="1.5" points="64.387,52.375 66.859,55.746 71.492,55.721 				"/>
				<line fill="none" stroke="#2D669A" stroke-width="1.5" x1="66.859" y1="55.746" x2="65.238" y2="60.228"/>
				<polyline fill="none" stroke="#2D669A" stroke-width="1.5" points="58.33,52.562 55.783,55.877 57.1,60.323 				"/>
				<line fill="none" stroke="#2D669A" stroke-width="1.5" x1="55.783" y1="55.877" x2="51.031" y2="55.568"/>
				<polyline fill="none" stroke="#2D669A" stroke-width="1.5" points="56.42,46.811 52.49,45.389 48.657,47.99 				"/>
				<line fill="none" stroke="#2D669A" stroke-width="1.5" x1="52.49" y1="45.389" x2="51.346" y2="40.764"/>
			</g>
		</g>
		<g>
			<g>
				<path fill="none" stroke="#2D669A" stroke-width="1.5" d="M69.84,14.814c0.291-3.82-0.848-7.455-3.498-10.029
					c-5.381-5.217-14.949-4.086-21.367,2.531c-6.416,6.617-7.26,16.213-1.877,21.432c5.191,5.037,14.281,4.16,20.679-1.854"/>
				<path fill="none" stroke="#2D669A" stroke-width="1.5" d="M39.85,22.855c0,0,0.074,5.768-2.322,7.984
					c-2.394,2.213-14.333,13.629-14.333,13.629s-1.263,1.037-0.494,2.287l1.59,1.59c1.224,0.812,2.308-0.408,2.308-0.408
					s12.213-11.807,14.52-14.113s8.07-2.012,8.07-2.012"/>
				<line fill="none" stroke="#2D669A" stroke-width="1.5" x1="40.438" y1="34.498" x2="37.221" y2="31.459"/>
			</g>
			<g>
				<line fill="none" stroke="#2D669A" stroke-width="0.7876" x1="56.727" y1="1.549" x2="69.615" y2="14.436"/>
				<path fill="none" stroke="#2D669A" stroke-width="0.7876" d="M50.098,3.482c0,0,7.115,7.113,13.144,13.143"/>
				<line fill="none" stroke="#2D669A" stroke-width="0.7876" x1="45.169" y1="7.115" x2="61.486" y2="23.43"/>
				<line fill="none" stroke="#2D669A" stroke-width="0.7876" x1="41.548" y1="12.057" x2="59.229" y2="29.734"/>
				<line fill="none" stroke="#2D669A" stroke-width="0.7876" x1="39.604" y1="18.672" x2="53.082" y2="32.148"/>
				<line fill="none" stroke="#2D669A" stroke-width="0.7876" x1="39.568" y1="19.207" x2="57.258" y2="1.52"/>
				<line fill="none" stroke="#2D669A" stroke-width="0.7876" x1="41.137" y1="26.201" x2="64.188" y2="3.152"/>
				<line fill="none" stroke="#2D669A" stroke-width="0.7876" x1="45.422" y1="30.479" x2="68.396" y2="7.506"/>
				<line fill="none" stroke="#2D669A" stroke-width="0.7876" x1="52.278" y1="32.186" x2="61.393" y2="23.07"/>
			</g>
		</g>
	</g>
</g>
</svg>
