<?xml version="1.0" encoding="utf-8"?>
<!-- Generator: Adobe Illustrator 14.0.0, SVG Export Plug-In . SVG Version: 6.00 Build 43363)  -->
<!DOCTYPE svg PUBLIC "-//W3C//DTD SVG 1.1//EN" "http://www.w3.org/Graphics/SVG/1.1/DTD/svg11.dtd">
<svg version="1.1" id="Layer_1" xmlns="http://www.w3.org/2000/svg" xmlns:xlink="http://www.w3.org/1999/xlink" x="0px" y="0px"
	 width="110px" height="115px" viewBox="0 0 110 115" enable-background="new 0 0 110 115" xml:space="preserve">
<line fill="none" stroke="#AEAEAE" stroke-width="0.3938" x1="23.971" y1="73.37" x2="86.582" y2="73.37"/>
<g>
	<path fill="#333333" d="M39.255,90.438h-2.359v-0.723h5.532v0.723h-2.359v6.955h-0.813V90.438z"/>
	<path fill="#333333" d="M43.853,89.715h4.675v0.723h-3.861v3.602h3.443v0.711h-3.443v1.92h4.02v0.723h-4.833V89.715z"/>
	<path fill="#333333" d="M51.636,92.052c-0.215-0.26-0.531-0.712-0.531-0.712s0.068,0.543,0.068,0.87v5.183h-0.769v-7.757h0.136
		l4.584,5.42c0.215,0.259,0.531,0.711,0.531,0.711s-0.057-0.542-0.057-0.869v-5.183h0.757v7.757H56.22L51.636,92.052z"/>
	<path fill="#333333" d="M59.689,92.052c-0.215-0.26-0.531-0.712-0.531-0.712s0.068,0.543,0.068,0.87v5.183h-0.769v-7.757h0.136
		l4.584,5.42c0.215,0.259,0.531,0.711,0.531,0.711s-0.057-0.542-0.057-0.869v-5.183h0.757v7.757h-0.136L59.689,92.052z"/>
	<path fill="#333333" d="M66.546,89.715h0.824v7.678h-0.824V89.715z"/>
	<path fill="#333333" d="M68.782,95.925l0.678-0.361c0.361,0.644,0.893,1.196,1.977,1.196c0.892,0,1.592-0.496,1.592-1.31
		c0-0.779-0.485-1.174-1.445-1.604l-0.61-0.282c-1.095-0.496-1.693-1.027-1.693-2.1c0-1.106,0.869-1.841,2.021-1.841
		c1.027,0,1.671,0.475,2.077,1.151l-0.654,0.407c-0.294-0.475-0.7-0.836-1.423-0.836c-0.757,0-1.22,0.44-1.22,1.096
		c0,0.677,0.361,0.981,1.22,1.377l0.609,0.282c1.276,0.564,1.931,1.197,1.931,2.349c0,1.265-1.005,2.032-2.382,2.032
		C69.991,97.482,69.189,96.737,68.782,95.925z"/>
</g>
<g>
	<g>
		<circle fill="none" stroke="#AEAEAE" stroke-width="1.5" cx="68.835" cy="55.403" r="8.088"/>
		<path fill="none" stroke="#AEAEAE" stroke-width="1.5" d="M61.444,52.108c0,0,1.626-1.582,3.286,0.081
			c1.663,1.661,3.217,8.975,8.312,7.201c2.403-0.835,3.091-3.015,2.946-5.086c-0.164-2.324-1.324-4.51-1.324-4.51"/>
	</g>
	<g>
		<g>
			<path fill="none" stroke="#AEAEAE" stroke-width="1.5" d="M54.07,15.353c-7.363,7.589-8.328,18.601-2.154,24.59
				c6.17,5.989,17.146,4.69,24.511-2.9c7.364-7.594,8.329-18.603,2.155-24.593C72.409,6.46,61.434,7.761,54.07,15.353z"/>
			<path fill="none" stroke="#AEAEAE" stroke-width="1.5" d="M48.191,33.182c0,0,0.084,6.62-2.668,9.163
				c-2.744,2.54-16.444,15.637-16.444,15.637s-1.45,1.19-0.569,2.625l1.827,1.821c1.402,0.935,2.646-0.466,2.646-0.466
				s14.015-13.547,16.662-16.194c2.647-2.648,9.254-2.308,9.254-2.308"/>
			<line fill="none" stroke="#AEAEAE" stroke-width="1.5" x1="48.862" y1="46.543" x2="45.172" y2="43.054"/>
		</g>
		<g>
			<line fill="none" stroke="#AEAEAE" stroke-width="0.7876" x1="67.55" y1="8.733" x2="82.339" y2="23.521"/>
			<path fill="none" stroke="#AEAEAE" stroke-width="0.7876" d="M59.947,10.953c0,0,13.761,13.762,20.695,20.696"/>
			<line fill="none" stroke="#AEAEAE" stroke-width="0.7876" x1="54.294" y1="15.121" x2="76.413" y2="37.243"/>
			<line fill="none" stroke="#AEAEAE" stroke-width="0.7876" x1="50.14" y1="20.792" x2="70.422" y2="41.076"/>
			<line fill="none" stroke="#AEAEAE" stroke-width="0.7876" x1="47.907" y1="28.382" x2="63.369" y2="43.845"/>
			<line fill="none" stroke="#AEAEAE" stroke-width="0.7876" x1="47.867" y1="28.997" x2="68.157" y2="8.702"/>
			<line fill="none" stroke="#AEAEAE" stroke-width="0.7876" x1="49.666" y1="37.022" x2="76.109" y2="10.574"/>
			<line fill="none" stroke="#AEAEAE" stroke-width="0.7876" x1="54.583" y1="41.929" x2="80.943" y2="15.568"/>
			<line fill="none" stroke="#AEAEAE" stroke-width="0.7876" x1="62.445" y1="43.89" x2="82.547" y2="23.791"/>
		</g>
	</g>
</g>
</svg>
