<?xml version="1.0" encoding="utf-8"?>
<!-- Generator: Adobe Illustrator 14.0.0, SVG Export Plug-In . SVG Version: 6.00 Build 43363)  -->
<!DOCTYPE svg PUBLIC "-//W3C//DTD SVG 1.1//EN" "http://www.w3.org/Graphics/SVG/1.1/DTD/svg11.dtd">
<svg version="1.1" id="Layer_1" xmlns="http://www.w3.org/2000/svg" xmlns:xlink="http://www.w3.org/1999/xlink" x="0px" y="0px"
	 width="110px" height="115px" viewBox="0 0 110 115" enable-background="new 0 0 110 115" xml:space="preserve">
<line fill="none" stroke="#AEAEAE" stroke-width="0.3938" x1="23.971" y1="73.37" x2="86.582" y2="73.37"/>
<g>
	<path fill="#333333" d="M34.85,90.438H32.49v-0.723h5.532v0.723h-2.359v6.955H34.85V90.438z"/>
	<path fill="#333333" d="M39.447,89.715h0.813v4.324h4.11v-4.324h0.812v7.678h-0.812v-2.608h-4.11v2.608h-0.813V89.715z"/>
	<path fill="#333333" d="M47.286,89.715h4.675v0.723H48.1v3.602h3.443v0.711H48.1v1.92h4.02v0.723h-4.833V89.715z"/>
	<path fill="#333333" d="M56.39,89.636h0.136l3.252,7.757h-0.858L58.4,96.105h-3.885l-0.508,1.287h-0.802L56.39,89.636z
		 M58.106,95.405l-1.355-3.41c-0.146-0.361-0.293-0.914-0.293-0.914s-0.158,0.553-0.305,0.914l-1.355,3.41H58.106z"/>
	<path fill="#333333" d="M62.026,90.438h-2.359v-0.723h5.532v0.723H62.84v6.955h-0.813V90.438z"/>
	<path fill="#333333" d="M66.624,89.715h4.675v0.723h-3.861v3.602h3.443v0.711h-3.443v1.92h4.02v0.723h-4.833V89.715z"/>
	<path fill="#333333" d="M78.155,97.393h-0.959l-1.479-2.101c-0.26,0.046-0.542,0.068-0.813,0.068h-0.914v2.032h-0.813v-7.678h1.728
		c2.101,0,3.185,1.174,3.185,2.834c0,1.151-0.542,2.055-1.604,2.483L78.155,97.393z M74.858,94.648c1.739,0,2.383-0.892,2.383-2.1
		c0-1.209-0.655-2.111-2.383-2.111h-0.869v4.211H74.858z"/>
</g>
<g>
	<g>
		<path fill="none" stroke="#AEAEAE" stroke-width="1.5" stroke-linecap="round" stroke-linejoin="round" d="M86.346,14.442
			c0,0-7.406-2.063-13.187-4.144l-1.572-0.59c-5.72-2.238-12.651-5.56-12.651-5.56s-3.056,11.246-3.18,11.864
			c-0.504,1.572-2.505,8.201-1.773,12.34c0.834,4.717,2.976,11.453,4.403,12.439c0,0,1.296,0.846,2.242,1.201
			c0.944,0.355,2.01,0.394,2.01,0.394c1.723,0.2,7.771-3.462,11.505-6.464c3.243-2.607,6.077-8.816,6.766-10.408
			C81.597,24.172,86.346,14.442,86.346,14.442z"/>
		<path fill="none" stroke="#AEAEAE" stroke-width="0.7876" stroke-linecap="round" stroke-linejoin="round" d="M65.984,19.828
			c0,0-0.007-2.607-2.488-3.182c-2.481-0.571-4.293,0.904-4.293,0.904s2.471,0.838,3.75,1.498S65.592,21.118,65.984,19.828z"/>
		<path fill="none" stroke="#AEAEAE" stroke-width="0.7876" stroke-linecap="round" stroke-linejoin="round" d="M70.994,21.709
			c0,0,1.724-1.958,3.97-0.756c2.245,1.203,2.638,3.507,2.638,3.507s-2.412-0.997-3.811-1.342
			C72.392,22.774,70.443,22.94,70.994,21.709z"/>
		<path fill="none" stroke="#AEAEAE" stroke-width="0.7876" stroke-linecap="round" stroke-linejoin="round" d="M57.786,26.818
			c0.366-0.492,0.454-0.729,1.104-0.305c0.651,0.424,2.245,2.641,5.71,3.941c3.467,1.303,7.555,0.949,7.555,0.949
			c0.022,0.465-0.057,1.148-0.473,1.532c-0.411,0.384-3.312,2.8-6.688,2.699c-1.883-0.054-3.427-1.102-4.324-1.892
			C57.275,30.758,57.786,26.818,57.786,26.818z"/>
	</g>
	<g>
		<g>
			<path fill="none" stroke="#AEAEAE" stroke-width="1.5" stroke-linecap="round" stroke-linejoin="round" d="M53.85,25.415
				c-0.91-2.854-2.162-6.401-2.162-6.401s-6.771,3.637-12.385,6.136l-1.543,0.662c-5.677,2.343-12.978,4.743-12.978,4.743
				s5.208,9.538,5.941,10.818c0.764,1.562,3.875,7.627,7.231,10.08c3.867,2.828,10.078,6.207,11.79,5.932
				c0,0,1.523-0.287,2.449-0.686c0.929-0.396,1.724-1.104,1.724-1.104c1.381-1.051,3.211-7.879,3.829-12.631
				c0.115-0.885,0.102-1.878,0.005-2.907"/>
			<path fill="none" stroke="#AEAEAE" stroke-width="0.7876" stroke-linecap="round" stroke-linejoin="round" d="M40.176,35.721
				c0,0,0.112,2.605-2.341,3.293c-2.452,0.686-4.331-0.707-4.331-0.707s2.432-0.949,3.677-1.668
				C38.431,35.92,39.724,34.451,40.176,35.721z"/>
			<path fill="none" stroke="#AEAEAE" stroke-width="0.7876" stroke-linecap="round" stroke-linejoin="round" d="M45.092,33.611
				c0,0,1.812,1.877,4,0.574c2.189-1.305,2.475-3.625,2.475-3.625s-2.363,1.106-3.745,1.515
				C46.443,32.484,44.487,32.408,45.092,33.611z"/>
			<path fill="none" stroke="#AEAEAE" stroke-width="0.7876" stroke-linecap="round" stroke-linejoin="round" d="M40.746,50.487
				c0.386,0.474,0.485,0.706,1.116,0.253c0.628-0.453,2.12-2.74,5.522-4.199c3.403-1.459,7.501-1.293,7.501-1.293
				c0.005-0.467-0.109-1.145-0.54-1.509c-0.43-0.364-3.438-2.646-6.807-2.393c-1.878,0.144-3.371,1.26-4.23,2.09
				C40.054,46.574,40.746,50.487,40.746,50.487z"/>
		</g>
	</g>
</g>
</svg>
