<?xml version="1.0" encoding="utf-8"?>
<!-- Generator: Adobe Illustrator 14.0.0, SVG Export Plug-In . SVG Version: 6.00 Build 43363)  -->
<!DOCTYPE svg PUBLIC "-//W3C//DTD SVG 1.1//EN" "http://www.w3.org/Graphics/SVG/1.1/DTD/svg11.dtd">
<svg version="1.1" id="Layer_1" xmlns="http://www.w3.org/2000/svg" xmlns:xlink="http://www.w3.org/1999/xlink" x="0px" y="0px"
	 width="110px" height="115px" viewBox="0 0 110 115" enable-background="new 0 0 110 115" xml:space="preserve">
<line fill="none" stroke="#AEAEAE" stroke-width="0.3938" x1="23.971" y1="73.37" x2="86.582" y2="73.37"/>
<g>
	<path fill="#333333" d="M36.64,90.438H34.28v-0.723h5.532v0.723h-2.359v6.955H36.64V90.438z"/>
	<path fill="#333333" d="M41.271,89.715h0.824v7.678h-0.824V89.715z"/>
	<path fill="#333333" d="M43.791,93.554c0-2.315,1.762-3.93,3.941-3.93c1.354,0,2.394,0.508,3.049,1.49l-0.621,0.452
		c-0.497-0.734-1.321-1.208-2.428-1.208c-1.796,0-3.094,1.366-3.094,3.195s1.298,3.195,3.094,3.195c1.117,0,1.976-0.485,2.529-1.287
		l0.632,0.44c-0.678,0.993-1.784,1.58-3.161,1.58C45.553,97.482,43.791,95.868,43.791,93.554z"/>
	<path fill="#333333" d="M53.73,93.452l2.902-3.737h0.914l-2.846,3.703l3.15,3.975h-1.005l-2.676-3.376l-0.926,1.118v2.258h-0.813
		v-7.678h0.813v3.636c0,0.361-0.045,0.802-0.068,1.05C53.347,94.073,53.584,93.644,53.73,93.452z"/>
	<path fill="#333333" d="M59.289,89.715h4.675v0.723h-3.861v3.602h3.443v0.711h-3.443v1.92h4.02v0.723h-4.833V89.715z"/>
	<path fill="#333333" d="M67.522,90.438h-2.359v-0.723h5.532v0.723h-2.359v6.955h-0.813V90.438z"/>
	<path fill="#333333" d="M71.398,95.925l0.678-0.361c0.361,0.644,0.892,1.196,1.976,1.196c0.893,0,1.593-0.496,1.593-1.31
		c0-0.779-0.485-1.174-1.445-1.604l-0.61-0.282c-1.095-0.496-1.693-1.027-1.693-2.1c0-1.106,0.869-1.841,2.021-1.841
		c1.027,0,1.671,0.475,2.077,1.151l-0.654,0.407c-0.294-0.475-0.7-0.836-1.423-0.836c-0.757,0-1.22,0.44-1.22,1.096
		c0,0.677,0.361,0.981,1.22,1.377l0.609,0.282c1.276,0.564,1.931,1.197,1.931,2.349c0,1.265-1.005,2.032-2.382,2.032
		C72.606,97.482,71.806,96.737,71.398,95.925z"/>
</g>
<g>
	<path fill="none" stroke="#2D669A" stroke-width="1.5" d="M77.498,12.657c0,0-1.802,0.611-4.207,0.27
		c-2.341-0.334-3.904-2.936-3.904-2.936L27.223,31.243c0,0,0.495,1.84,0,4.215c-0.482,2.316-3.18,3.709-3.18,3.709l8.175,16.021
		c0,0,1.804-0.621,4.204-0.289c2.346,0.322,3.922,2.916,3.922,2.916L82.375,36.63c0,0-0.486-1.846,0.021-4.217
		c0.494-2.314,3.198-3.695,3.198-3.695L77.498,12.657z"/>
	<g>
		<path fill="#2D669A" d="M33.586,39.499l6.329-3.17l0.481,0.965l-2.639,1.322l3.314,6.621l-1.092,0.545l-3.312-6.621l-2.598,1.301
			L33.586,39.499z"/>
		<path fill="#2D669A" d="M41.233,35.683l1.085-0.543l3.794,7.574l-1.085,0.545L41.233,35.683z"/>
		<path fill="#2D669A" d="M53.716,36.71l0.6,1.193c-0.579,0.83-1.389,1.508-2.43,2.029c-0.846,0.422-1.65,0.609-2.407,0.566
			c-0.76-0.045-1.462-0.277-2.102-0.703c-0.643-0.426-1.137-0.984-1.484-1.678c-0.552-1.102-0.623-2.227-0.214-3.371
			c0.41-1.145,1.19-2.008,2.345-2.584c0.795-0.396,1.783-0.635,2.962-0.703l0.585,1.164c-1.14-0.061-2.132,0.117-2.978,0.541
			c-0.866,0.434-1.449,1.068-1.749,1.902c-0.3,0.836-0.243,1.664,0.171,2.49c0.416,0.832,1.04,1.373,1.872,1.625
			s1.688,0.16,2.564-0.281C52.37,38.442,53.126,37.712,53.716,36.71z"/>
		<path fill="#2D669A" d="M56.703,27.94l1.356-0.678l-1.487,5.238l6.092,1.932l-1.482,0.738l-5.751-1.801l1.875,3.742l-1.085,0.541
			l-3.795-7.574l1.086-0.543l1.734,3.465L56.703,27.94z"/>
		<path fill="#2D669A" d="M59.984,26.302l4.295-2.152l0.482,0.967l-3.212,1.607l1.159,2.309l3.102-1.551l0.486,0.969l-3.104,1.553
			l1.18,2.354l3.312-1.658l0.483,0.965l-4.397,2.201L59.984,26.302z"/>
		<path fill="#2D669A" d="M65.163,23.694l6.327-3.168l0.483,0.965l-2.639,1.324l3.312,6.619l-1.091,0.545l-3.312-6.621l-2.6,1.301
			L65.163,23.694z"/>
	</g>
</g>
</svg>
